M48
;DRILL file {Pcbnew (2013-07-07 BZR 4022)-stable} date 15/03/2016 14:01:09
;FORMAT={-:-/ absolute / metric / decimal}
FMAT,2
METRIC,TZ
T1C0.813
T2C0.835
T3C1.000
T4C1.016
T5C1.060
T6C1.516
T7C1.716
T8C1.843
%
G90
G05
M71
T1
X59.69Y-59.753
X59.69Y-62.293
X67.31Y-59.753
X67.31Y-62.293
X82.359Y-48.006
X82.359Y-50.546
X102.489Y-58.991
X102.489Y-61.531
X104.013Y-67.31
X104.013Y-69.85
X104.902Y-79.311
X107.442Y-79.311
X111.887Y-43.116
X111.887Y-50.736
X114.427Y-43.116
X114.427Y-50.736
X116.967Y-43.116
X116.967Y-50.736
X119.507Y-43.116
X119.507Y-50.736
X122.047Y-43.116
X122.047Y-50.736
X124.587Y-43.116
X124.587Y-50.736
X127.127Y-43.116
X127.127Y-50.736
T2
X133.159Y-53.594
X135.191Y-59.309
X135.445Y-42.227
X141.859Y-65.151
X141.922Y-49.149
T4
X73.977Y-84.709
X73.977Y-87.249
X74.93Y-46.355
X74.93Y-50.419
X76.454Y-71.819
X76.454Y-74.358
X76.454Y-76.898
X78.549Y-37.338
X81.09Y-37.338
X96.329Y-54.673
X98.87Y-54.673
X101.155Y-38.227
X101.155Y-40.767
X103.441Y-87.694
X105.981Y-87.694
X106.172Y-37.465
X111.379Y-67.246
X112.522Y-56.451
X113.919Y-67.246
X115.062Y-56.451
X115.062Y-61.15
X117.602Y-56.451
X121.412Y-67.246
X123.952Y-67.246
X124.206Y-38.163
X126.492Y-67.246
X126.746Y-38.163
X129.286Y-38.163
X131.826Y-38.163
X133.096Y-47.816
X139.192Y-52.261
X139.192Y-54.8
X139.192Y-57.34
X139.192Y-59.88
T5
X74.93Y-42.291
T6
X84.01Y-75.692
X84.01Y-87.757
X89.98Y-73.66
X96.075Y-75.692
X96.075Y-87.757
T7
X74.676Y-58.674
X74.676Y-62.738
T8
X91.504Y-54.546
X91.504Y-67.246
T3
X61.326Y-43.689G85X61.326Y-41.507
G05
X63.352Y-47.099G85X65.538Y-47.099
G05
X67.445Y-43.689G85X67.445Y-41.507
G05
T0
M30
