M48
;DRILL file {Pcbnew (2013-07-07 BZR 4022)-stable} date 16/10/2015 10:30:27 a.m.
;FORMAT={-:-/ absolute / metric / decimal}
FMAT,2
METRIC,TZ
T1C0.635
T2C0.812
T3C0.813
T4C1.000
T5C1.016
%
G90
G05
M71
T1
X198.628Y-129.794
X202.438Y-107.569
X203.581Y-109.347
X203.835Y-115.189
X204.089Y-122.428
X204.216Y-120.142
X204.343Y-117.729
X205.867Y-125.095
X207.137Y-121.793
X225.552Y-115.824
X228.473Y-115.443
X229.235Y-113.411
X231.013Y-136.652
X233.68Y-136.525
X236.093Y-136.525
X238.887Y-136.652
X240.03Y-113.284
X241.427Y-136.525
X241.935Y-109.982
X244.729Y-136.398
X245.999Y-101.854
X247.65Y-104.14
X249.428Y-132.842
X257.302Y-127.508
X258.318Y-94.615
X258.318Y-97.028
X259.334Y-125.222
X260.35Y-123.317
X260.985Y-119.253
X261.493Y-117.221
X261.747Y-114.808
X261.874Y-112.395
X263.525Y-103.759
X265.938Y-105.664
X268.097Y-131.318
X268.224Y-118.618
X268.224Y-120.777
X273.304Y-134.239
X273.685Y-122.682
X279.146Y-128.016
T2
X201.295Y-77.597
X201.295Y-80.137
X201.295Y-87.757
X201.295Y-90.297
X201.295Y-92.837
X201.295Y-95.377
X201.295Y-97.917
X201.295Y-100.457
X201.295Y-102.997
X201.295Y-105.537
X201.295Y-110.109
X201.295Y-112.649
X201.295Y-115.189
X201.295Y-117.729
X201.295Y-120.269
X201.295Y-122.809
X201.295Y-125.349
X201.295Y-127.889
X205.74Y-131.445
X205.74Y-133.985
X208.28Y-131.445
X208.28Y-133.985
X210.82Y-131.445
X210.82Y-133.985
X213.36Y-131.445
X213.36Y-133.985
X215.9Y-131.445
X215.9Y-133.985
X218.44Y-131.445
X218.44Y-133.985
X220.98Y-131.445
X220.98Y-133.985
X223.52Y-131.445
X223.52Y-133.985
X226.06Y-131.445
X226.06Y-133.985
X228.6Y-131.445
X228.6Y-133.985
X231.14Y-131.445
X231.14Y-133.985
X233.68Y-131.445
X233.68Y-133.985
X236.22Y-131.445
X236.22Y-133.985
X238.76Y-131.445
X238.76Y-133.985
X241.3Y-131.445
X241.3Y-133.985
X243.84Y-131.445
X243.84Y-133.985
X246.38Y-131.445
X246.38Y-133.985
X248.92Y-111.252
X248.92Y-113.792
X248.92Y-116.332
X248.92Y-118.872
X275.336Y-99.695
X275.336Y-102.235
X275.336Y-104.775
X275.336Y-107.315
X275.336Y-109.855
X275.336Y-112.395
X275.336Y-114.935
T3
X209.804Y-69.088
X209.804Y-72.771
X212.344Y-69.088
X212.344Y-72.771
X228.219Y-81.788
X230.759Y-81.788
X257.937Y-77.597
X257.937Y-80.137
X270.764Y-122.682
X270.764Y-125.222
X270.764Y-127.762
X271.145Y-72.644
X271.145Y-75.184
X272.161Y-81.026
X274.701Y-81.026
X276.479Y-128.524
X276.479Y-131.064
X276.479Y-133.604
X277.241Y-81.026
T5
X201.295Y-77.597
X201.295Y-105.537
X201.295Y-110.109
X226.06Y-131.445
X226.06Y-133.985
X228.6Y-131.445
X228.6Y-133.985
X230.759Y-81.788
X248.92Y-111.252
X248.92Y-118.872
X261.239Y-68.707
X261.366Y-72.898
X263.779Y-68.707
X263.906Y-72.898
X266.319Y-68.707
X266.446Y-72.898
X267.716Y-139.954
X270.256Y-139.954
X272.796Y-139.954
X275.336Y-139.954
T4
X270.756Y-91.367G85X270.756Y-92.549
G05
X274.347Y-87.457G85X273.165Y-87.457
G05
X276.875Y-91.367G85X276.875Y-92.549
G05
T0
M30
