G04 (created by PCBNEW (2013-07-07 BZR 4022)-stable) date 16/10/2015 10:30:24 a.m.*
%MOIN*%
G04 Gerber Fmt 3.4, Leading zero omitted, Abs format*
%FSLAX34Y34*%
G01*
G70*
G90*
G04 APERTURE LIST*
%ADD10C,0.00590551*%
%ADD11C,0.075*%
%ADD12R,0.0787X0.0177*%
%ADD13R,0.0177X0.0787*%
%ADD14R,0.06X0.08*%
%ADD15R,0.08X0.06*%
%ADD16C,0.1771*%
%ADD17R,0.075X0.075*%
%ADD18R,0.0748819X0.0748819*%
%ADD19C,0.0748819*%
%ADD20C,0.050748*%
%ADD21C,0.0198425*%
%ADD22C,0.01*%
G04 APERTURE END LIST*
G54D10*
G54D11*
X98000Y-45800D03*
X98000Y-46800D03*
X89850Y-32200D03*
X90850Y-32200D03*
X79250Y-40550D03*
X79250Y-39550D03*
X79250Y-38550D03*
X79250Y-37550D03*
X79250Y-36550D03*
X79250Y-35550D03*
X79250Y-34550D03*
X79250Y-41550D03*
X79250Y-44350D03*
X79250Y-45350D03*
X79250Y-46350D03*
X79250Y-47350D03*
X79250Y-48350D03*
X79250Y-49350D03*
X79250Y-50350D03*
X79250Y-43350D03*
X98000Y-44800D03*
X98000Y-43800D03*
X91000Y-51750D03*
X92000Y-51750D03*
X93000Y-51750D03*
X94000Y-51750D03*
X95000Y-51750D03*
X96000Y-51750D03*
X97000Y-51750D03*
X90000Y-51750D03*
X88000Y-51750D03*
X87000Y-51750D03*
X86000Y-51750D03*
X85000Y-51750D03*
X84000Y-51750D03*
X83000Y-51750D03*
X82000Y-51750D03*
X89000Y-51750D03*
X79250Y-31550D03*
X79250Y-30550D03*
X91000Y-52750D03*
X92000Y-52750D03*
X93000Y-52750D03*
X94000Y-52750D03*
X95000Y-52750D03*
X96000Y-52750D03*
X97000Y-52750D03*
X90000Y-52750D03*
X88000Y-52750D03*
X87000Y-52750D03*
X86000Y-52750D03*
X85000Y-52750D03*
X84000Y-52750D03*
X83000Y-52750D03*
X82000Y-52750D03*
X89000Y-52750D03*
G54D12*
X89954Y-36707D03*
X89954Y-37022D03*
X89954Y-37337D03*
X89954Y-37652D03*
X89954Y-37967D03*
X89954Y-38282D03*
X89954Y-38597D03*
X89954Y-38912D03*
X93720Y-38910D03*
X93720Y-36700D03*
X93720Y-37020D03*
X93720Y-37340D03*
X93720Y-37650D03*
X93720Y-37970D03*
X93720Y-38280D03*
X93720Y-38600D03*
G54D13*
X90738Y-39700D03*
X91052Y-39700D03*
X91368Y-39700D03*
X91682Y-39700D03*
X91998Y-39700D03*
X92312Y-39700D03*
X92628Y-39700D03*
X92942Y-39700D03*
X90740Y-35920D03*
X91050Y-35920D03*
X91370Y-35920D03*
X91680Y-35920D03*
X91990Y-35920D03*
X92310Y-35920D03*
X92630Y-35920D03*
X92950Y-35920D03*
G54D14*
X89000Y-33850D03*
X90300Y-33850D03*
G54D15*
X102900Y-38200D03*
X102900Y-39500D03*
G54D14*
X82500Y-34900D03*
X83800Y-34900D03*
X84750Y-47400D03*
X86050Y-47400D03*
X84800Y-45000D03*
X86100Y-45000D03*
X84800Y-42600D03*
X86100Y-42600D03*
X82500Y-37000D03*
X83800Y-37000D03*
X82500Y-39250D03*
X83800Y-39250D03*
X82500Y-41400D03*
X83800Y-41400D03*
X82500Y-43750D03*
X83800Y-43750D03*
X82500Y-32700D03*
X83800Y-32700D03*
X84800Y-40300D03*
X86100Y-40300D03*
X84850Y-38150D03*
X86150Y-38150D03*
X82500Y-46150D03*
X83800Y-46150D03*
X82500Y-48350D03*
X83800Y-48350D03*
X84950Y-31650D03*
X86250Y-31650D03*
X84950Y-33800D03*
X86250Y-33800D03*
X84900Y-35950D03*
X86200Y-35950D03*
G54D11*
X101550Y-30550D03*
X101550Y-31550D03*
X106750Y-28600D03*
X106750Y-29600D03*
G54D16*
X106597Y-36204D03*
X107778Y-34432D03*
X109006Y-36204D03*
G54D11*
X109150Y-31900D03*
X108150Y-31900D03*
X107150Y-31900D03*
X82600Y-27200D03*
X83600Y-27200D03*
X83600Y-28650D03*
X82600Y-28650D03*
G54D15*
X79000Y-27600D03*
X79000Y-28900D03*
X80250Y-27600D03*
X80250Y-28900D03*
G54D11*
X81000Y-51750D03*
X108850Y-52600D03*
X108850Y-51600D03*
X108850Y-50600D03*
X106600Y-50300D03*
X106600Y-49300D03*
X106600Y-48300D03*
G54D17*
X102900Y-28700D03*
G54D11*
X103900Y-28700D03*
X104900Y-28700D03*
G54D17*
X105400Y-55100D03*
G54D11*
X106400Y-55100D03*
X107400Y-55100D03*
X108400Y-55100D03*
G54D17*
X81000Y-52750D03*
X102850Y-27050D03*
G54D11*
X103850Y-27050D03*
X104850Y-27050D03*
G54D18*
X108400Y-45250D03*
G54D19*
X108400Y-44250D03*
X108400Y-43250D03*
X108400Y-42250D03*
X108400Y-41250D03*
G54D18*
X108400Y-40250D03*
G54D19*
X108400Y-39250D03*
G54D20*
X94500Y-44600D03*
X104700Y-41600D03*
X103750Y-40850D03*
X97500Y-41000D03*
X105550Y-51700D03*
X89950Y-45450D03*
X107750Y-48300D03*
X90950Y-53800D03*
X101300Y-50200D03*
X95250Y-43300D03*
X101700Y-37250D03*
X109900Y-50400D03*
X95050Y-53750D03*
X98200Y-52300D03*
X96350Y-53700D03*
X94050Y-53800D03*
X92950Y-53750D03*
X92000Y-53750D03*
X105600Y-47550D03*
X102750Y-46950D03*
X103050Y-45200D03*
X105600Y-46700D03*
X102950Y-46150D03*
X102100Y-49300D03*
X103100Y-44250D03*
X102500Y-48550D03*
X96850Y-40100D03*
X101700Y-38200D03*
X107600Y-52850D03*
X90250Y-44650D03*
X80450Y-46350D03*
X79700Y-42350D03*
X80400Y-47300D03*
X81550Y-47950D03*
X80350Y-48200D03*
X80250Y-45350D03*
X80150Y-43050D03*
X81050Y-49250D03*
X78200Y-51100D03*
X88800Y-45600D03*
G54D21*
X94500Y-43250D02*
X94500Y-44600D01*
X93720Y-38280D02*
X95224Y-38280D01*
X94500Y-40900D02*
X94500Y-43250D01*
X94500Y-43250D02*
X94500Y-43300D01*
X95900Y-39500D02*
X94500Y-40900D01*
X95900Y-38955D02*
X95900Y-39500D01*
X95224Y-38280D02*
X95900Y-38955D01*
X105550Y-53250D02*
X105550Y-51700D01*
X102650Y-56150D02*
X105550Y-53250D01*
X80950Y-56150D02*
X102650Y-56150D01*
X79250Y-54450D02*
X80950Y-56150D01*
X79250Y-51950D02*
X79250Y-54450D01*
X80698Y-50501D02*
X79250Y-51950D01*
X87398Y-50501D02*
X80698Y-50501D01*
X89150Y-48750D02*
X87398Y-50501D01*
X89150Y-46250D02*
X89150Y-48750D01*
X89950Y-45450D02*
X89150Y-46250D01*
X91680Y-35920D02*
X91680Y-33820D01*
X107750Y-47950D02*
X107750Y-48300D01*
X100848Y-41048D02*
X107750Y-47950D01*
X100848Y-37376D02*
X100848Y-41048D01*
X96372Y-32900D02*
X100848Y-37376D01*
X92600Y-32900D02*
X96372Y-32900D01*
X91680Y-33820D02*
X92600Y-32900D01*
X93720Y-38910D02*
X94860Y-38910D01*
X92550Y-55400D02*
X90950Y-53800D01*
X98294Y-55400D02*
X92550Y-55400D01*
X100400Y-53294D02*
X98294Y-55400D01*
X100400Y-50727D02*
X100400Y-53294D01*
X98576Y-48904D02*
X100400Y-50727D01*
X93554Y-48904D02*
X98576Y-48904D01*
X93240Y-48590D02*
X93554Y-48904D01*
X93240Y-41209D02*
X93240Y-48590D01*
X95050Y-39400D02*
X93240Y-41209D01*
X95050Y-39100D02*
X95050Y-39400D01*
X94860Y-38910D02*
X95050Y-39100D01*
X93720Y-38578D02*
X93720Y-38600D01*
X95028Y-38578D02*
X93720Y-38578D01*
X95348Y-38898D02*
X95028Y-38578D01*
X95348Y-39523D02*
X95348Y-38898D01*
X93538Y-41333D02*
X95348Y-39523D01*
X93538Y-48300D02*
X93538Y-41333D01*
X93838Y-48600D02*
X93538Y-48300D01*
X99700Y-48600D02*
X93838Y-48600D01*
X101300Y-50200D02*
X99700Y-48600D01*
X93720Y-37970D02*
X95370Y-37970D01*
X95250Y-40600D02*
X95250Y-43300D01*
X96200Y-39650D02*
X95250Y-40600D01*
X96200Y-38800D02*
X96200Y-39650D01*
X95370Y-37970D02*
X96200Y-38800D01*
X82600Y-28650D02*
X82600Y-28500D01*
X100750Y-36250D02*
X100900Y-36250D01*
X95850Y-31350D02*
X100750Y-36250D01*
X88000Y-31350D02*
X95850Y-31350D01*
X84600Y-27950D02*
X88000Y-31350D01*
X83150Y-27950D02*
X84600Y-27950D01*
X82600Y-28500D02*
X83150Y-27950D01*
X102900Y-38200D02*
X102650Y-38200D01*
X102650Y-38200D02*
X101700Y-37250D01*
X102900Y-38200D02*
X102900Y-36950D01*
X102200Y-36250D02*
X100900Y-36250D01*
X102900Y-36950D02*
X102200Y-36250D01*
X100900Y-36250D02*
X101150Y-36250D01*
X82600Y-27200D02*
X82300Y-27200D01*
X90300Y-33250D02*
X90300Y-33850D01*
X90050Y-33000D02*
X90300Y-33250D01*
X89100Y-33000D02*
X90050Y-33000D01*
X85950Y-29850D02*
X89100Y-33000D01*
X82550Y-29850D02*
X85950Y-29850D01*
X81650Y-28950D02*
X82550Y-29850D01*
X81650Y-27850D02*
X81650Y-28950D01*
X82300Y-27200D02*
X81650Y-27850D01*
X90300Y-33850D02*
X90750Y-33850D01*
X91050Y-34150D02*
X91050Y-35920D01*
X90750Y-33850D02*
X91050Y-34150D01*
X91370Y-35920D02*
X91370Y-33680D01*
X109900Y-49677D02*
X109900Y-50400D01*
X101146Y-40924D02*
X109900Y-49677D01*
X101146Y-37252D02*
X101146Y-40924D01*
X96495Y-32601D02*
X101146Y-37252D01*
X92448Y-32601D02*
X96495Y-32601D01*
X91370Y-33680D02*
X92448Y-32601D01*
X91998Y-39700D02*
X91998Y-49151D01*
X95500Y-54200D02*
X95050Y-53750D01*
X97800Y-54200D02*
X95500Y-54200D01*
X99200Y-52800D02*
X97800Y-54200D01*
X99200Y-51250D02*
X99200Y-52800D01*
X98050Y-50100D02*
X99200Y-51250D01*
X92946Y-50100D02*
X98050Y-50100D01*
X91998Y-49151D02*
X92946Y-50100D01*
X91368Y-39700D02*
X91368Y-49368D01*
X98200Y-51150D02*
X98200Y-52300D01*
X97750Y-50700D02*
X98200Y-51150D01*
X92700Y-50700D02*
X97750Y-50700D01*
X91368Y-49368D02*
X92700Y-50700D01*
X91682Y-39700D02*
X91682Y-49259D01*
X97850Y-53700D02*
X96350Y-53700D01*
X98900Y-52650D02*
X97850Y-53700D01*
X98900Y-51400D02*
X98900Y-52650D01*
X97901Y-50401D02*
X98900Y-51400D01*
X92823Y-50401D02*
X97901Y-50401D01*
X91682Y-49259D02*
X92823Y-50401D01*
X92312Y-39700D02*
X92312Y-49012D01*
X94750Y-54500D02*
X94050Y-53800D01*
X97922Y-54500D02*
X94750Y-54500D01*
X99498Y-52923D02*
X97922Y-54500D01*
X99498Y-51126D02*
X99498Y-52923D01*
X98172Y-49800D02*
X99498Y-51126D01*
X93100Y-49800D02*
X98172Y-49800D01*
X92312Y-49012D02*
X93100Y-49800D01*
X92628Y-39700D02*
X92628Y-48879D01*
X94000Y-54800D02*
X92950Y-53750D01*
X98050Y-54800D02*
X94000Y-54800D01*
X99800Y-53050D02*
X98050Y-54800D01*
X99800Y-51000D02*
X99800Y-53050D01*
X98301Y-49501D02*
X99800Y-51000D01*
X93250Y-49501D02*
X98301Y-49501D01*
X92628Y-48879D02*
X93250Y-49501D01*
X92942Y-39700D02*
X92942Y-48742D01*
X93348Y-55098D02*
X92000Y-53750D01*
X98173Y-55098D02*
X93348Y-55098D01*
X100100Y-53172D02*
X98173Y-55098D01*
X100100Y-50850D02*
X100100Y-53172D01*
X98453Y-49203D02*
X100100Y-50850D01*
X93403Y-49203D02*
X98453Y-49203D01*
X92942Y-48742D02*
X93403Y-49203D01*
X102750Y-46950D02*
X105000Y-46950D01*
X105000Y-46950D02*
X105600Y-47550D01*
X92950Y-35920D02*
X92950Y-34343D01*
X99650Y-43850D02*
X102750Y-46950D01*
X99650Y-37900D02*
X99650Y-43850D01*
X95843Y-34093D02*
X99650Y-37900D01*
X93200Y-34093D02*
X95843Y-34093D01*
X92950Y-34343D02*
X93200Y-34093D01*
X92310Y-35920D02*
X92310Y-34062D01*
X100251Y-42401D02*
X103050Y-45200D01*
X100251Y-37623D02*
X100251Y-42401D01*
X96124Y-33496D02*
X100251Y-37623D01*
X92875Y-33496D02*
X96124Y-33496D01*
X92310Y-34062D02*
X92875Y-33496D01*
X105050Y-46150D02*
X102950Y-46150D01*
X105600Y-46700D02*
X105050Y-46150D01*
X92630Y-35920D02*
X92630Y-34220D01*
X99950Y-43150D02*
X102950Y-46150D01*
X99950Y-37744D02*
X99950Y-43150D01*
X96001Y-33795D02*
X99950Y-37744D01*
X93054Y-33795D02*
X96001Y-33795D01*
X92630Y-34220D02*
X93054Y-33795D01*
X93720Y-36700D02*
X98001Y-36700D01*
X99000Y-44800D02*
X98000Y-44800D01*
X99350Y-44450D02*
X99000Y-44800D01*
X99350Y-38048D02*
X99350Y-44450D01*
X98001Y-36700D02*
X99350Y-38048D01*
X93720Y-37650D02*
X97600Y-37650D01*
X100748Y-47948D02*
X102100Y-49300D01*
X96098Y-47948D02*
X100748Y-47948D01*
X95400Y-47250D02*
X96098Y-47948D01*
X95400Y-43950D02*
X95400Y-47250D01*
X96700Y-42650D02*
X95400Y-43950D01*
X98000Y-42650D02*
X96700Y-42650D01*
X98450Y-42200D02*
X98000Y-42650D01*
X98450Y-38500D02*
X98450Y-42200D01*
X97600Y-37650D02*
X98450Y-38500D01*
X91990Y-35920D02*
X91990Y-33960D01*
X100550Y-41700D02*
X103100Y-44250D01*
X100550Y-37500D02*
X100550Y-41700D01*
X96248Y-33198D02*
X100550Y-37500D01*
X92751Y-33198D02*
X96248Y-33198D01*
X91990Y-33960D02*
X92751Y-33198D01*
X93720Y-37340D02*
X97743Y-37340D01*
X101600Y-47650D02*
X102500Y-48550D01*
X96250Y-47650D02*
X101600Y-47650D01*
X95700Y-47100D02*
X96250Y-47650D01*
X95700Y-44100D02*
X95700Y-47100D01*
X96850Y-42950D02*
X95700Y-44100D01*
X98150Y-42950D02*
X96850Y-42950D01*
X98753Y-42346D02*
X98150Y-42950D01*
X98753Y-38350D02*
X98753Y-42346D01*
X97743Y-37340D02*
X98753Y-38350D01*
X93720Y-37020D02*
X97899Y-37020D01*
X98750Y-43800D02*
X98000Y-43800D01*
X99051Y-43498D02*
X98750Y-43800D01*
X99051Y-38172D02*
X99051Y-43498D01*
X97899Y-37020D02*
X99051Y-38172D01*
X105700Y-50950D02*
X107600Y-52850D01*
X104950Y-50950D02*
X105700Y-50950D01*
X104800Y-51100D02*
X104950Y-50950D01*
X104800Y-53577D02*
X104800Y-51100D01*
X102526Y-55851D02*
X104800Y-53577D01*
X81073Y-55851D02*
X102526Y-55851D01*
X79548Y-54326D02*
X81073Y-55851D01*
X79548Y-52100D02*
X79548Y-54326D01*
X80848Y-50800D02*
X79548Y-52100D01*
X87550Y-50800D02*
X80848Y-50800D01*
X90950Y-47400D02*
X87550Y-50800D01*
X90950Y-45350D02*
X90950Y-47400D01*
X90250Y-44650D02*
X90950Y-45350D01*
X86100Y-42600D02*
X86600Y-42600D01*
X87968Y-38282D02*
X89954Y-38282D01*
X87200Y-39050D02*
X87968Y-38282D01*
X87200Y-42000D02*
X87200Y-39050D01*
X86600Y-42600D02*
X87200Y-42000D01*
X89954Y-37967D02*
X87833Y-37967D01*
X86700Y-40300D02*
X86100Y-40300D01*
X86850Y-40150D02*
X86700Y-40300D01*
X86850Y-38950D02*
X86850Y-40150D01*
X87833Y-37967D02*
X86850Y-38950D01*
X89954Y-37652D02*
X87298Y-37652D01*
X86800Y-38150D02*
X86150Y-38150D01*
X87298Y-37652D02*
X86800Y-38150D01*
X89954Y-37337D02*
X88087Y-37337D01*
X86700Y-35950D02*
X86200Y-35950D01*
X88087Y-37337D02*
X86700Y-35950D01*
X89954Y-36707D02*
X88407Y-36707D01*
X87150Y-31650D02*
X86250Y-31650D01*
X87850Y-32350D02*
X87150Y-31650D01*
X87850Y-36150D02*
X87850Y-32350D01*
X88407Y-36707D02*
X87850Y-36150D01*
X82500Y-39250D02*
X82500Y-39700D01*
X81001Y-45798D02*
X80450Y-46350D01*
X81001Y-41198D02*
X81001Y-45798D01*
X82500Y-39700D02*
X81001Y-41198D01*
X84850Y-38150D02*
X82850Y-38150D01*
X82500Y-38500D02*
X82500Y-39250D01*
X82850Y-38150D02*
X82500Y-38500D01*
X86250Y-33800D02*
X87000Y-33800D01*
X88272Y-37022D02*
X89954Y-37022D01*
X87550Y-36300D02*
X88272Y-37022D01*
X87550Y-34350D02*
X87550Y-36300D01*
X87000Y-33800D02*
X87550Y-34350D01*
X82500Y-32700D02*
X81250Y-32700D01*
X80000Y-42050D02*
X79700Y-42350D01*
X80000Y-33950D02*
X80000Y-42050D01*
X81250Y-32700D02*
X80000Y-33950D01*
X84950Y-31650D02*
X82900Y-31650D01*
X82500Y-32050D02*
X82500Y-32700D01*
X82900Y-31650D02*
X82500Y-32050D01*
X82500Y-41400D02*
X82500Y-41850D01*
X81300Y-46400D02*
X80400Y-47300D01*
X81300Y-43050D02*
X81300Y-46400D01*
X82500Y-41850D02*
X81300Y-43050D01*
X84800Y-40300D02*
X82750Y-40300D01*
X82500Y-40550D02*
X82500Y-41400D01*
X82750Y-40300D02*
X82500Y-40550D01*
X89954Y-38597D02*
X88253Y-38597D01*
X86750Y-45000D02*
X86100Y-45000D01*
X87500Y-44250D02*
X86750Y-45000D01*
X87500Y-39350D02*
X87500Y-44250D01*
X88253Y-38597D02*
X87500Y-39350D01*
X82500Y-46150D02*
X82000Y-46150D01*
X81900Y-47600D02*
X81550Y-47950D01*
X81900Y-46250D02*
X81900Y-47600D01*
X82000Y-46150D02*
X81900Y-46250D01*
X84800Y-45000D02*
X82800Y-45000D01*
X82500Y-45300D02*
X82500Y-46150D01*
X82800Y-45000D02*
X82500Y-45300D01*
X82500Y-43750D02*
X82050Y-43750D01*
X81600Y-46950D02*
X80350Y-48200D01*
X81600Y-44200D02*
X81600Y-46950D01*
X82050Y-43750D02*
X81600Y-44200D01*
X84800Y-42600D02*
X83000Y-42600D01*
X83000Y-42600D02*
X82500Y-43100D01*
X82500Y-43100D02*
X82500Y-43750D01*
X82500Y-37000D02*
X82500Y-37700D01*
X80703Y-44896D02*
X80250Y-45350D01*
X80703Y-39496D02*
X80703Y-44896D01*
X82500Y-37700D02*
X80703Y-39496D01*
X84900Y-35950D02*
X82900Y-35950D01*
X82500Y-36350D02*
X82500Y-37000D01*
X82900Y-35950D02*
X82500Y-36350D01*
X81850Y-34900D02*
X82500Y-34900D01*
X80350Y-36400D02*
X81850Y-34900D01*
X80350Y-42850D02*
X80350Y-36400D01*
X80150Y-43050D02*
X80350Y-42850D01*
X84950Y-33800D02*
X82900Y-33800D01*
X82500Y-34200D02*
X82500Y-34900D01*
X82900Y-33800D02*
X82500Y-34200D01*
X82500Y-48350D02*
X81950Y-48350D01*
X81950Y-48350D02*
X81050Y-49250D01*
X84750Y-47400D02*
X82650Y-47400D01*
X82500Y-47550D02*
X82500Y-48350D01*
X82650Y-47400D02*
X82500Y-47550D01*
X78600Y-51500D02*
X78200Y-51100D01*
X79250Y-51500D02*
X78600Y-51500D01*
X80546Y-50203D02*
X79250Y-51500D01*
X87246Y-50203D02*
X80546Y-50203D01*
X88800Y-48650D02*
X87246Y-50203D01*
X88800Y-45600D02*
X88800Y-48650D01*
X86050Y-47400D02*
X86500Y-47400D01*
X88738Y-38912D02*
X89954Y-38912D01*
X87850Y-39800D02*
X88738Y-38912D01*
X87850Y-46050D02*
X87850Y-39800D01*
X86500Y-47400D02*
X87850Y-46050D01*
G54D10*
G36*
X91950Y-39056D02*
X91859Y-39056D01*
X91840Y-39064D01*
X91820Y-39056D01*
X91720Y-39056D01*
X91543Y-39056D01*
X91525Y-39064D01*
X91506Y-39056D01*
X91406Y-39056D01*
X91229Y-39056D01*
X91210Y-39064D01*
X91190Y-39056D01*
X91090Y-39056D01*
X90913Y-39056D01*
X90895Y-39064D01*
X90876Y-39056D01*
X90844Y-39056D01*
X90782Y-39119D01*
X90782Y-39134D01*
X90751Y-39164D01*
X90713Y-39256D01*
X90713Y-39356D01*
X90713Y-40143D01*
X90751Y-40234D01*
X90782Y-40265D01*
X90782Y-40281D01*
X90844Y-40343D01*
X90876Y-40343D01*
X90894Y-40335D01*
X90913Y-40343D01*
X91013Y-40343D01*
X91018Y-40343D01*
X91018Y-44924D01*
X90753Y-44659D01*
X90753Y-44550D01*
X90693Y-44404D01*
X90693Y-40281D01*
X90693Y-39750D01*
X90462Y-39750D01*
X90399Y-39812D01*
X90399Y-40043D01*
X90399Y-40143D01*
X90437Y-40235D01*
X90508Y-40305D01*
X90599Y-40343D01*
X90631Y-40343D01*
X90693Y-40281D01*
X90693Y-44404D01*
X90677Y-44365D01*
X90535Y-44223D01*
X90350Y-44146D01*
X90150Y-44146D01*
X89965Y-44222D01*
X89823Y-44364D01*
X89746Y-44549D01*
X89746Y-44749D01*
X89822Y-44934D01*
X89838Y-44950D01*
X89665Y-45022D01*
X89523Y-45164D01*
X89446Y-45349D01*
X89446Y-45459D01*
X89303Y-45602D01*
X89303Y-45500D01*
X89227Y-45315D01*
X89085Y-45173D01*
X88900Y-45096D01*
X88700Y-45096D01*
X88515Y-45172D01*
X88373Y-45314D01*
X88296Y-45499D01*
X88296Y-45699D01*
X88372Y-45884D01*
X88450Y-45963D01*
X88450Y-48505D01*
X87102Y-49853D01*
X84350Y-49853D01*
X84350Y-48700D01*
X84350Y-48462D01*
X84287Y-48400D01*
X83850Y-48400D01*
X83850Y-48937D01*
X83912Y-49000D01*
X84149Y-49000D01*
X84241Y-48962D01*
X84311Y-48891D01*
X84349Y-48799D01*
X84350Y-48700D01*
X84350Y-49853D01*
X83750Y-49853D01*
X83750Y-48937D01*
X83750Y-48400D01*
X83312Y-48400D01*
X83250Y-48462D01*
X83249Y-48700D01*
X83250Y-48799D01*
X83288Y-48891D01*
X83358Y-48962D01*
X83450Y-49000D01*
X83687Y-49000D01*
X83750Y-48937D01*
X83750Y-49853D01*
X80546Y-49853D01*
X80413Y-49880D01*
X80299Y-49956D01*
X79874Y-50381D01*
X79875Y-50226D01*
X79780Y-49996D01*
X79633Y-49849D01*
X79779Y-49704D01*
X79874Y-49474D01*
X79875Y-49226D01*
X79780Y-48996D01*
X79633Y-48849D01*
X79779Y-48704D01*
X79874Y-48474D01*
X79874Y-48369D01*
X79922Y-48484D01*
X80064Y-48626D01*
X80249Y-48703D01*
X80449Y-48703D01*
X80634Y-48627D01*
X80776Y-48485D01*
X80853Y-48300D01*
X80853Y-48190D01*
X81046Y-47997D01*
X81046Y-48049D01*
X81122Y-48234D01*
X81264Y-48376D01*
X81380Y-48425D01*
X81059Y-48746D01*
X80950Y-48746D01*
X80765Y-48822D01*
X80623Y-48964D01*
X80546Y-49149D01*
X80546Y-49349D01*
X80622Y-49534D01*
X80764Y-49676D01*
X80949Y-49753D01*
X81149Y-49753D01*
X81334Y-49677D01*
X81476Y-49535D01*
X81553Y-49350D01*
X81553Y-49240D01*
X81962Y-48830D01*
X81987Y-48891D01*
X82058Y-48961D01*
X82150Y-48999D01*
X82249Y-49000D01*
X82849Y-49000D01*
X82941Y-48962D01*
X83011Y-48891D01*
X83049Y-48799D01*
X83050Y-48700D01*
X83050Y-47900D01*
X83012Y-47808D01*
X82952Y-47749D01*
X83347Y-47749D01*
X83288Y-47808D01*
X83250Y-47900D01*
X83249Y-47999D01*
X83250Y-48237D01*
X83312Y-48300D01*
X83750Y-48300D01*
X83750Y-48292D01*
X83850Y-48292D01*
X83850Y-48300D01*
X84287Y-48300D01*
X84350Y-48237D01*
X84350Y-48029D01*
X84400Y-48049D01*
X84499Y-48050D01*
X85099Y-48050D01*
X85191Y-48012D01*
X85261Y-47941D01*
X85299Y-47849D01*
X85300Y-47750D01*
X85300Y-46950D01*
X85262Y-46858D01*
X85191Y-46788D01*
X85099Y-46750D01*
X85000Y-46749D01*
X84400Y-46749D01*
X84350Y-46770D01*
X84350Y-46500D01*
X84350Y-45799D01*
X84349Y-45700D01*
X84311Y-45608D01*
X84241Y-45537D01*
X84149Y-45499D01*
X83912Y-45500D01*
X83850Y-45562D01*
X83850Y-46100D01*
X84287Y-46100D01*
X84350Y-46037D01*
X84350Y-45799D01*
X84350Y-46500D01*
X84350Y-46262D01*
X84287Y-46200D01*
X83850Y-46200D01*
X83850Y-46737D01*
X83912Y-46800D01*
X84149Y-46800D01*
X84241Y-46762D01*
X84311Y-46691D01*
X84349Y-46599D01*
X84350Y-46500D01*
X84350Y-46770D01*
X84308Y-46787D01*
X84238Y-46858D01*
X84200Y-46950D01*
X84199Y-47049D01*
X84199Y-47050D01*
X83750Y-47050D01*
X83750Y-46737D01*
X83750Y-46200D01*
X83750Y-46100D01*
X83750Y-45562D01*
X83687Y-45500D01*
X83450Y-45499D01*
X83358Y-45537D01*
X83288Y-45608D01*
X83250Y-45700D01*
X83249Y-45799D01*
X83250Y-46037D01*
X83312Y-46100D01*
X83750Y-46100D01*
X83750Y-46200D01*
X83312Y-46200D01*
X83250Y-46262D01*
X83249Y-46500D01*
X83250Y-46599D01*
X83288Y-46691D01*
X83358Y-46762D01*
X83450Y-46800D01*
X83687Y-46800D01*
X83750Y-46737D01*
X83750Y-47050D01*
X82650Y-47050D01*
X82516Y-47077D01*
X82470Y-47107D01*
X82403Y-47153D01*
X82403Y-47153D01*
X82253Y-47303D01*
X82249Y-47308D01*
X82249Y-46800D01*
X82249Y-46800D01*
X82849Y-46800D01*
X82941Y-46762D01*
X83011Y-46691D01*
X83049Y-46599D01*
X83050Y-46500D01*
X83050Y-45700D01*
X83012Y-45608D01*
X82941Y-45538D01*
X82849Y-45500D01*
X82849Y-45500D01*
X82849Y-45444D01*
X82944Y-45349D01*
X84249Y-45349D01*
X84249Y-45449D01*
X84287Y-45541D01*
X84358Y-45611D01*
X84450Y-45649D01*
X84549Y-45650D01*
X85149Y-45650D01*
X85241Y-45612D01*
X85311Y-45541D01*
X85349Y-45449D01*
X85350Y-45350D01*
X85350Y-44550D01*
X85312Y-44458D01*
X85241Y-44388D01*
X85149Y-44350D01*
X85050Y-44349D01*
X84450Y-44349D01*
X84358Y-44387D01*
X84350Y-44396D01*
X84350Y-44100D01*
X84350Y-43399D01*
X84349Y-43300D01*
X84311Y-43208D01*
X84241Y-43137D01*
X84149Y-43099D01*
X83912Y-43100D01*
X83850Y-43162D01*
X83850Y-43700D01*
X84287Y-43700D01*
X84350Y-43637D01*
X84350Y-43399D01*
X84350Y-44100D01*
X84350Y-43862D01*
X84287Y-43800D01*
X83850Y-43800D01*
X83850Y-44337D01*
X83912Y-44400D01*
X84149Y-44400D01*
X84241Y-44362D01*
X84311Y-44291D01*
X84349Y-44199D01*
X84350Y-44100D01*
X84350Y-44396D01*
X84288Y-44458D01*
X84250Y-44550D01*
X84249Y-44649D01*
X84249Y-44650D01*
X83750Y-44650D01*
X83750Y-44337D01*
X83750Y-43800D01*
X83750Y-43700D01*
X83750Y-43162D01*
X83687Y-43100D01*
X83450Y-43099D01*
X83358Y-43137D01*
X83288Y-43208D01*
X83250Y-43300D01*
X83249Y-43399D01*
X83250Y-43637D01*
X83312Y-43700D01*
X83750Y-43700D01*
X83750Y-43800D01*
X83312Y-43800D01*
X83250Y-43862D01*
X83249Y-44100D01*
X83250Y-44199D01*
X83288Y-44291D01*
X83358Y-44362D01*
X83450Y-44400D01*
X83687Y-44400D01*
X83750Y-44337D01*
X83750Y-44650D01*
X82800Y-44650D01*
X82799Y-44650D01*
X82773Y-44656D01*
X82666Y-44677D01*
X82553Y-44753D01*
X82553Y-44753D01*
X82253Y-45053D01*
X82177Y-45166D01*
X82150Y-45300D01*
X82150Y-45499D01*
X82150Y-45499D01*
X82058Y-45537D01*
X81988Y-45608D01*
X81950Y-45700D01*
X81949Y-45799D01*
X81949Y-45810D01*
X81949Y-45810D01*
X81949Y-44344D01*
X81995Y-44298D01*
X82058Y-44361D01*
X82150Y-44399D01*
X82249Y-44400D01*
X82849Y-44400D01*
X82941Y-44362D01*
X83011Y-44291D01*
X83049Y-44199D01*
X83050Y-44100D01*
X83050Y-43300D01*
X83012Y-43208D01*
X82948Y-43145D01*
X83144Y-42949D01*
X84249Y-42949D01*
X84249Y-43049D01*
X84287Y-43141D01*
X84358Y-43211D01*
X84450Y-43249D01*
X84549Y-43250D01*
X85149Y-43250D01*
X85241Y-43212D01*
X85311Y-43141D01*
X85349Y-43049D01*
X85350Y-42950D01*
X85350Y-42150D01*
X85312Y-42058D01*
X85241Y-41988D01*
X85149Y-41950D01*
X85050Y-41949D01*
X84450Y-41949D01*
X84358Y-41987D01*
X84350Y-41996D01*
X84350Y-41750D01*
X84350Y-41512D01*
X84287Y-41450D01*
X83850Y-41450D01*
X83850Y-41987D01*
X83912Y-42050D01*
X84149Y-42050D01*
X84241Y-42012D01*
X84311Y-41941D01*
X84349Y-41849D01*
X84350Y-41750D01*
X84350Y-41996D01*
X84288Y-42058D01*
X84250Y-42150D01*
X84249Y-42249D01*
X84249Y-42250D01*
X83750Y-42250D01*
X83750Y-41987D01*
X83750Y-41450D01*
X83750Y-41350D01*
X83750Y-40812D01*
X83687Y-40750D01*
X83450Y-40749D01*
X83358Y-40787D01*
X83288Y-40858D01*
X83250Y-40950D01*
X83249Y-41049D01*
X83250Y-41287D01*
X83312Y-41350D01*
X83750Y-41350D01*
X83750Y-41450D01*
X83312Y-41450D01*
X83250Y-41512D01*
X83249Y-41750D01*
X83250Y-41849D01*
X83288Y-41941D01*
X83358Y-42012D01*
X83450Y-42050D01*
X83687Y-42050D01*
X83750Y-41987D01*
X83750Y-42250D01*
X83000Y-42250D01*
X82866Y-42277D01*
X82753Y-42353D01*
X82253Y-42853D01*
X82177Y-42966D01*
X82150Y-43099D01*
X82150Y-43099D01*
X82058Y-43137D01*
X81988Y-43208D01*
X81950Y-43300D01*
X81949Y-43399D01*
X81949Y-43420D01*
X81916Y-43427D01*
X81803Y-43503D01*
X81649Y-43656D01*
X81649Y-43194D01*
X82746Y-42096D01*
X82746Y-42096D01*
X82746Y-42096D01*
X82778Y-42050D01*
X82849Y-42050D01*
X82941Y-42012D01*
X83011Y-41941D01*
X83049Y-41849D01*
X83050Y-41750D01*
X83050Y-40950D01*
X83012Y-40858D01*
X82941Y-40788D01*
X82849Y-40750D01*
X82849Y-40750D01*
X82849Y-40694D01*
X82894Y-40649D01*
X84249Y-40649D01*
X84249Y-40749D01*
X84282Y-40829D01*
X84241Y-40787D01*
X84149Y-40749D01*
X83912Y-40750D01*
X83850Y-40812D01*
X83850Y-41350D01*
X84287Y-41350D01*
X84350Y-41287D01*
X84350Y-41049D01*
X84349Y-40950D01*
X84316Y-40870D01*
X84358Y-40911D01*
X84450Y-40949D01*
X84549Y-40950D01*
X85149Y-40950D01*
X85241Y-40912D01*
X85311Y-40841D01*
X85349Y-40749D01*
X85350Y-40650D01*
X85350Y-39850D01*
X85312Y-39758D01*
X85241Y-39688D01*
X85149Y-39650D01*
X85050Y-39649D01*
X84450Y-39649D01*
X84358Y-39687D01*
X84349Y-39696D01*
X84350Y-39600D01*
X84350Y-38899D01*
X84349Y-38800D01*
X84311Y-38708D01*
X84241Y-38637D01*
X84149Y-38599D01*
X83912Y-38600D01*
X83850Y-38662D01*
X83850Y-39200D01*
X84287Y-39200D01*
X84350Y-39137D01*
X84350Y-38899D01*
X84350Y-39600D01*
X84350Y-39362D01*
X84287Y-39300D01*
X83850Y-39300D01*
X83850Y-39837D01*
X83912Y-39900D01*
X84149Y-39900D01*
X84241Y-39862D01*
X84250Y-39853D01*
X84249Y-39949D01*
X84249Y-39950D01*
X83750Y-39950D01*
X83750Y-39837D01*
X83750Y-39300D01*
X83750Y-39200D01*
X83750Y-38662D01*
X83687Y-38600D01*
X83450Y-38599D01*
X83358Y-38637D01*
X83288Y-38708D01*
X83250Y-38800D01*
X83249Y-38899D01*
X83250Y-39137D01*
X83312Y-39200D01*
X83750Y-39200D01*
X83750Y-39300D01*
X83312Y-39300D01*
X83250Y-39362D01*
X83249Y-39600D01*
X83250Y-39699D01*
X83288Y-39791D01*
X83358Y-39862D01*
X83450Y-39900D01*
X83687Y-39900D01*
X83750Y-39837D01*
X83750Y-39950D01*
X82750Y-39950D01*
X82741Y-39952D01*
X82746Y-39946D01*
X82746Y-39946D01*
X82746Y-39946D01*
X82778Y-39900D01*
X82849Y-39900D01*
X82941Y-39862D01*
X83011Y-39791D01*
X83049Y-39699D01*
X83050Y-39600D01*
X83050Y-38800D01*
X83012Y-38708D01*
X82941Y-38638D01*
X82880Y-38612D01*
X82994Y-38499D01*
X84299Y-38499D01*
X84299Y-38599D01*
X84337Y-38691D01*
X84408Y-38761D01*
X84500Y-38799D01*
X84599Y-38800D01*
X85199Y-38800D01*
X85291Y-38762D01*
X85361Y-38691D01*
X85399Y-38599D01*
X85400Y-38500D01*
X85400Y-37700D01*
X85362Y-37608D01*
X85291Y-37538D01*
X85199Y-37500D01*
X85100Y-37499D01*
X84500Y-37499D01*
X84408Y-37537D01*
X84350Y-37596D01*
X84350Y-37350D01*
X84350Y-36649D01*
X84349Y-36550D01*
X84311Y-36458D01*
X84241Y-36387D01*
X84149Y-36349D01*
X83912Y-36350D01*
X83850Y-36412D01*
X83850Y-36950D01*
X84287Y-36950D01*
X84350Y-36887D01*
X84350Y-36649D01*
X84350Y-37350D01*
X84350Y-37112D01*
X84287Y-37050D01*
X83850Y-37050D01*
X83850Y-37587D01*
X83912Y-37650D01*
X84149Y-37650D01*
X84241Y-37612D01*
X84311Y-37541D01*
X84349Y-37449D01*
X84350Y-37350D01*
X84350Y-37596D01*
X84338Y-37608D01*
X84300Y-37700D01*
X84299Y-37799D01*
X84299Y-37800D01*
X83750Y-37800D01*
X83750Y-37587D01*
X83750Y-37050D01*
X83750Y-36950D01*
X83750Y-36412D01*
X83687Y-36350D01*
X83450Y-36349D01*
X83358Y-36387D01*
X83288Y-36458D01*
X83250Y-36550D01*
X83249Y-36649D01*
X83250Y-36887D01*
X83312Y-36950D01*
X83750Y-36950D01*
X83750Y-37050D01*
X83312Y-37050D01*
X83250Y-37112D01*
X83249Y-37350D01*
X83250Y-37449D01*
X83288Y-37541D01*
X83358Y-37612D01*
X83450Y-37650D01*
X83687Y-37650D01*
X83750Y-37587D01*
X83750Y-37800D01*
X82850Y-37800D01*
X82849Y-37800D01*
X82828Y-37805D01*
X82849Y-37700D01*
X82849Y-37650D01*
X82849Y-37650D01*
X82941Y-37612D01*
X83011Y-37541D01*
X83049Y-37449D01*
X83050Y-37350D01*
X83050Y-36550D01*
X83012Y-36458D01*
X82948Y-36395D01*
X83044Y-36299D01*
X84349Y-36299D01*
X84349Y-36399D01*
X84387Y-36491D01*
X84458Y-36561D01*
X84550Y-36599D01*
X84649Y-36600D01*
X85249Y-36600D01*
X85341Y-36562D01*
X85411Y-36491D01*
X85449Y-36399D01*
X85450Y-36300D01*
X85450Y-35500D01*
X85412Y-35408D01*
X85341Y-35338D01*
X85249Y-35300D01*
X85150Y-35299D01*
X84550Y-35299D01*
X84458Y-35337D01*
X84388Y-35408D01*
X84350Y-35500D01*
X84350Y-35500D01*
X84350Y-35250D01*
X84350Y-34549D01*
X84349Y-34450D01*
X84311Y-34358D01*
X84241Y-34287D01*
X84149Y-34249D01*
X83912Y-34250D01*
X83850Y-34312D01*
X83850Y-34850D01*
X84287Y-34850D01*
X84350Y-34787D01*
X84350Y-34549D01*
X84350Y-35250D01*
X84350Y-35012D01*
X84287Y-34950D01*
X83850Y-34950D01*
X83850Y-35487D01*
X83912Y-35550D01*
X84149Y-35550D01*
X84241Y-35512D01*
X84311Y-35441D01*
X84349Y-35349D01*
X84350Y-35250D01*
X84350Y-35500D01*
X84349Y-35599D01*
X84349Y-35600D01*
X83750Y-35600D01*
X83750Y-35487D01*
X83750Y-34950D01*
X83750Y-34850D01*
X83750Y-34312D01*
X83687Y-34250D01*
X83450Y-34249D01*
X83358Y-34287D01*
X83288Y-34358D01*
X83250Y-34450D01*
X83249Y-34549D01*
X83250Y-34787D01*
X83312Y-34850D01*
X83750Y-34850D01*
X83750Y-34950D01*
X83312Y-34950D01*
X83250Y-35012D01*
X83249Y-35250D01*
X83250Y-35349D01*
X83288Y-35441D01*
X83358Y-35512D01*
X83450Y-35550D01*
X83687Y-35550D01*
X83750Y-35487D01*
X83750Y-35600D01*
X82900Y-35600D01*
X82899Y-35600D01*
X82873Y-35606D01*
X82766Y-35627D01*
X82653Y-35703D01*
X82653Y-35703D01*
X82253Y-36103D01*
X82177Y-36216D01*
X82150Y-36349D01*
X82150Y-36349D01*
X82058Y-36387D01*
X81988Y-36458D01*
X81950Y-36550D01*
X81949Y-36649D01*
X81949Y-37449D01*
X81987Y-37541D01*
X82058Y-37611D01*
X82083Y-37622D01*
X80699Y-39006D01*
X80699Y-36544D01*
X81949Y-35293D01*
X81949Y-35349D01*
X81987Y-35441D01*
X82058Y-35511D01*
X82150Y-35549D01*
X82249Y-35550D01*
X82849Y-35550D01*
X82941Y-35512D01*
X83011Y-35441D01*
X83049Y-35349D01*
X83050Y-35250D01*
X83050Y-34450D01*
X83012Y-34358D01*
X82941Y-34288D01*
X82916Y-34277D01*
X83044Y-34149D01*
X84399Y-34149D01*
X84399Y-34249D01*
X84437Y-34341D01*
X84508Y-34411D01*
X84600Y-34449D01*
X84699Y-34450D01*
X85299Y-34450D01*
X85391Y-34412D01*
X85461Y-34341D01*
X85499Y-34249D01*
X85500Y-34150D01*
X85500Y-33350D01*
X85462Y-33258D01*
X85391Y-33188D01*
X85299Y-33150D01*
X85200Y-33149D01*
X84600Y-33149D01*
X84508Y-33187D01*
X84438Y-33258D01*
X84400Y-33350D01*
X84399Y-33449D01*
X84399Y-33450D01*
X84350Y-33450D01*
X84350Y-33050D01*
X84350Y-32349D01*
X84349Y-32250D01*
X84311Y-32158D01*
X84241Y-32087D01*
X84149Y-32049D01*
X83912Y-32050D01*
X83850Y-32112D01*
X83850Y-32650D01*
X84287Y-32650D01*
X84350Y-32587D01*
X84350Y-32349D01*
X84350Y-33050D01*
X84350Y-32812D01*
X84287Y-32750D01*
X83850Y-32750D01*
X83850Y-33287D01*
X83912Y-33350D01*
X84149Y-33350D01*
X84241Y-33312D01*
X84311Y-33241D01*
X84349Y-33149D01*
X84350Y-33050D01*
X84350Y-33450D01*
X83750Y-33450D01*
X83750Y-33287D01*
X83750Y-32750D01*
X83750Y-32650D01*
X83750Y-32112D01*
X83687Y-32050D01*
X83450Y-32049D01*
X83358Y-32087D01*
X83288Y-32158D01*
X83250Y-32250D01*
X83249Y-32349D01*
X83250Y-32587D01*
X83312Y-32650D01*
X83750Y-32650D01*
X83750Y-32750D01*
X83312Y-32750D01*
X83250Y-32812D01*
X83249Y-33050D01*
X83250Y-33149D01*
X83288Y-33241D01*
X83358Y-33312D01*
X83450Y-33350D01*
X83687Y-33350D01*
X83750Y-33287D01*
X83750Y-33450D01*
X82900Y-33450D01*
X82899Y-33450D01*
X82873Y-33456D01*
X82766Y-33477D01*
X82653Y-33553D01*
X82653Y-33553D01*
X82253Y-33953D01*
X82177Y-34066D01*
X82150Y-34200D01*
X82150Y-34249D01*
X82150Y-34249D01*
X82058Y-34287D01*
X81988Y-34358D01*
X81950Y-34450D01*
X81949Y-34549D01*
X81949Y-34550D01*
X81850Y-34550D01*
X81716Y-34577D01*
X81603Y-34653D01*
X81603Y-34653D01*
X80349Y-35906D01*
X80349Y-34094D01*
X81394Y-33049D01*
X81949Y-33049D01*
X81949Y-33149D01*
X81987Y-33241D01*
X82058Y-33311D01*
X82150Y-33349D01*
X82249Y-33350D01*
X82849Y-33350D01*
X82941Y-33312D01*
X83011Y-33241D01*
X83049Y-33149D01*
X83050Y-33050D01*
X83050Y-32250D01*
X83012Y-32158D01*
X82948Y-32095D01*
X83044Y-31999D01*
X84399Y-31999D01*
X84399Y-32099D01*
X84437Y-32191D01*
X84508Y-32261D01*
X84600Y-32299D01*
X84699Y-32300D01*
X85299Y-32300D01*
X85391Y-32262D01*
X85461Y-32191D01*
X85499Y-32099D01*
X85500Y-32000D01*
X85500Y-31200D01*
X85462Y-31108D01*
X85391Y-31038D01*
X85299Y-31000D01*
X85200Y-30999D01*
X84600Y-30999D01*
X84508Y-31037D01*
X84438Y-31108D01*
X84400Y-31200D01*
X84399Y-31299D01*
X84399Y-31300D01*
X82900Y-31300D01*
X82899Y-31300D01*
X82873Y-31306D01*
X82766Y-31327D01*
X82653Y-31403D01*
X82653Y-31403D01*
X82253Y-31803D01*
X82177Y-31916D01*
X82150Y-32049D01*
X82150Y-32049D01*
X82058Y-32087D01*
X81988Y-32158D01*
X81950Y-32250D01*
X81949Y-32349D01*
X81949Y-32350D01*
X81250Y-32350D01*
X81116Y-32377D01*
X81003Y-32453D01*
X80900Y-32556D01*
X80900Y-29249D01*
X80900Y-29012D01*
X80837Y-28950D01*
X80300Y-28950D01*
X80300Y-29387D01*
X80362Y-29450D01*
X80600Y-29450D01*
X80699Y-29449D01*
X80791Y-29411D01*
X80862Y-29341D01*
X80900Y-29249D01*
X80900Y-32556D01*
X80200Y-33256D01*
X80200Y-29387D01*
X80200Y-28950D01*
X79662Y-28950D01*
X79625Y-28987D01*
X79587Y-28950D01*
X79050Y-28950D01*
X79050Y-29387D01*
X79112Y-29450D01*
X79350Y-29450D01*
X79449Y-29449D01*
X79541Y-29411D01*
X79612Y-29341D01*
X79625Y-29310D01*
X79637Y-29341D01*
X79708Y-29411D01*
X79800Y-29449D01*
X79899Y-29450D01*
X80137Y-29450D01*
X80200Y-29387D01*
X80200Y-33256D01*
X79879Y-33576D01*
X79879Y-31649D01*
X79875Y-31540D01*
X79875Y-30426D01*
X79780Y-30196D01*
X79604Y-30020D01*
X79374Y-29925D01*
X79126Y-29924D01*
X78896Y-30019D01*
X78720Y-30195D01*
X78625Y-30425D01*
X78624Y-30673D01*
X78719Y-30903D01*
X78892Y-31076D01*
X78880Y-31109D01*
X79250Y-31479D01*
X79619Y-31109D01*
X79607Y-31076D01*
X79779Y-30904D01*
X79874Y-30674D01*
X79875Y-30426D01*
X79875Y-31540D01*
X79869Y-31401D01*
X79793Y-31217D01*
X79690Y-31180D01*
X79320Y-31550D01*
X79690Y-31919D01*
X79793Y-31882D01*
X79879Y-31649D01*
X79879Y-33576D01*
X79753Y-33703D01*
X79677Y-33816D01*
X79650Y-33950D01*
X79650Y-34066D01*
X79619Y-34035D01*
X79619Y-31990D01*
X79250Y-31620D01*
X79179Y-31691D01*
X79179Y-31550D01*
X78809Y-31180D01*
X78706Y-31217D01*
X78620Y-31450D01*
X78630Y-31698D01*
X78706Y-31882D01*
X78809Y-31919D01*
X79179Y-31550D01*
X79179Y-31691D01*
X78880Y-31990D01*
X78917Y-32093D01*
X79150Y-32179D01*
X79398Y-32169D01*
X79582Y-32093D01*
X79619Y-31990D01*
X79619Y-34035D01*
X79604Y-34020D01*
X79374Y-33925D01*
X79126Y-33924D01*
X78896Y-34019D01*
X78720Y-34195D01*
X78625Y-34425D01*
X78624Y-34673D01*
X78719Y-34903D01*
X78866Y-35050D01*
X78720Y-35195D01*
X78625Y-35425D01*
X78624Y-35673D01*
X78719Y-35903D01*
X78866Y-36050D01*
X78720Y-36195D01*
X78625Y-36425D01*
X78624Y-36673D01*
X78719Y-36903D01*
X78866Y-37050D01*
X78720Y-37195D01*
X78625Y-37425D01*
X78624Y-37673D01*
X78719Y-37903D01*
X78866Y-38050D01*
X78720Y-38195D01*
X78625Y-38425D01*
X78624Y-38673D01*
X78719Y-38903D01*
X78866Y-39050D01*
X78720Y-39195D01*
X78625Y-39425D01*
X78624Y-39673D01*
X78719Y-39903D01*
X78866Y-40050D01*
X78720Y-40195D01*
X78625Y-40425D01*
X78624Y-40673D01*
X78719Y-40903D01*
X78866Y-41050D01*
X78720Y-41195D01*
X78625Y-41425D01*
X78624Y-41673D01*
X78719Y-41903D01*
X78895Y-42079D01*
X79125Y-42174D01*
X79227Y-42174D01*
X79196Y-42249D01*
X79196Y-42449D01*
X79272Y-42634D01*
X79362Y-42725D01*
X79126Y-42724D01*
X78896Y-42819D01*
X78720Y-42995D01*
X78625Y-43225D01*
X78624Y-43473D01*
X78719Y-43703D01*
X78866Y-43850D01*
X78720Y-43995D01*
X78625Y-44225D01*
X78624Y-44473D01*
X78719Y-44703D01*
X78866Y-44850D01*
X78720Y-44995D01*
X78625Y-45225D01*
X78624Y-45473D01*
X78719Y-45703D01*
X78866Y-45850D01*
X78720Y-45995D01*
X78625Y-46225D01*
X78624Y-46473D01*
X78719Y-46703D01*
X78866Y-46850D01*
X78720Y-46995D01*
X78625Y-47225D01*
X78624Y-47473D01*
X78719Y-47703D01*
X78866Y-47850D01*
X78720Y-47995D01*
X78625Y-48225D01*
X78624Y-48473D01*
X78719Y-48703D01*
X78866Y-48850D01*
X78720Y-48995D01*
X78625Y-49225D01*
X78624Y-49473D01*
X78719Y-49703D01*
X78866Y-49850D01*
X78720Y-49995D01*
X78625Y-50225D01*
X78624Y-50473D01*
X78719Y-50703D01*
X78866Y-50850D01*
X78641Y-50850D01*
X78627Y-50815D01*
X78485Y-50673D01*
X78450Y-50658D01*
X78450Y-29403D01*
X78458Y-29411D01*
X78550Y-29449D01*
X78649Y-29450D01*
X78887Y-29450D01*
X78950Y-29387D01*
X78950Y-28950D01*
X78942Y-28950D01*
X78942Y-28850D01*
X78950Y-28850D01*
X78950Y-28842D01*
X79050Y-28842D01*
X79050Y-28850D01*
X79587Y-28850D01*
X79625Y-28812D01*
X79662Y-28850D01*
X80200Y-28850D01*
X80200Y-28842D01*
X80300Y-28842D01*
X80300Y-28850D01*
X80837Y-28850D01*
X80900Y-28787D01*
X80900Y-28550D01*
X80879Y-28500D01*
X81300Y-28500D01*
X81300Y-28950D01*
X81327Y-29083D01*
X81403Y-29196D01*
X82303Y-30096D01*
X82416Y-30172D01*
X82550Y-30199D01*
X85805Y-30199D01*
X86610Y-31004D01*
X86599Y-31000D01*
X86500Y-30999D01*
X85900Y-30999D01*
X85808Y-31037D01*
X85738Y-31108D01*
X85700Y-31200D01*
X85699Y-31299D01*
X85699Y-32099D01*
X85737Y-32191D01*
X85808Y-32261D01*
X85900Y-32299D01*
X85999Y-32300D01*
X86599Y-32300D01*
X86691Y-32262D01*
X86761Y-32191D01*
X86799Y-32099D01*
X86800Y-32000D01*
X86800Y-31999D01*
X87005Y-31999D01*
X87500Y-32494D01*
X87500Y-33806D01*
X87246Y-33553D01*
X87133Y-33477D01*
X87000Y-33450D01*
X86800Y-33450D01*
X86800Y-33350D01*
X86762Y-33258D01*
X86691Y-33188D01*
X86599Y-33150D01*
X86500Y-33149D01*
X85900Y-33149D01*
X85808Y-33187D01*
X85738Y-33258D01*
X85700Y-33350D01*
X85699Y-33449D01*
X85699Y-34249D01*
X85737Y-34341D01*
X85808Y-34411D01*
X85900Y-34449D01*
X85999Y-34450D01*
X86599Y-34450D01*
X86691Y-34412D01*
X86761Y-34341D01*
X86799Y-34249D01*
X86800Y-34150D01*
X86800Y-34149D01*
X86855Y-34149D01*
X87200Y-34494D01*
X87200Y-35956D01*
X86946Y-35703D01*
X86833Y-35627D01*
X86750Y-35610D01*
X86750Y-35500D01*
X86712Y-35408D01*
X86641Y-35338D01*
X86549Y-35300D01*
X86450Y-35299D01*
X85850Y-35299D01*
X85758Y-35337D01*
X85688Y-35408D01*
X85650Y-35500D01*
X85649Y-35599D01*
X85649Y-36399D01*
X85687Y-36491D01*
X85758Y-36561D01*
X85850Y-36599D01*
X85949Y-36600D01*
X86549Y-36600D01*
X86641Y-36562D01*
X86711Y-36491D01*
X86722Y-36466D01*
X87558Y-37302D01*
X87298Y-37302D01*
X87164Y-37329D01*
X87051Y-37405D01*
X86700Y-37756D01*
X86700Y-37700D01*
X86662Y-37608D01*
X86591Y-37538D01*
X86499Y-37500D01*
X86400Y-37499D01*
X85800Y-37499D01*
X85708Y-37537D01*
X85638Y-37608D01*
X85600Y-37700D01*
X85599Y-37799D01*
X85599Y-38599D01*
X85637Y-38691D01*
X85708Y-38761D01*
X85800Y-38799D01*
X85899Y-38800D01*
X86499Y-38800D01*
X86553Y-38777D01*
X86527Y-38816D01*
X86500Y-38950D01*
X86500Y-39671D01*
X86449Y-39650D01*
X86350Y-39649D01*
X85750Y-39649D01*
X85658Y-39687D01*
X85588Y-39758D01*
X85550Y-39850D01*
X85549Y-39949D01*
X85549Y-40749D01*
X85587Y-40841D01*
X85658Y-40911D01*
X85750Y-40949D01*
X85849Y-40950D01*
X86449Y-40950D01*
X86541Y-40912D01*
X86611Y-40841D01*
X86649Y-40749D01*
X86650Y-40650D01*
X86650Y-40649D01*
X86700Y-40649D01*
X86833Y-40622D01*
X86850Y-40611D01*
X86850Y-41855D01*
X86622Y-42083D01*
X86612Y-42058D01*
X86541Y-41988D01*
X86449Y-41950D01*
X86350Y-41949D01*
X85750Y-41949D01*
X85658Y-41987D01*
X85588Y-42058D01*
X85550Y-42150D01*
X85549Y-42249D01*
X85549Y-43049D01*
X85587Y-43141D01*
X85658Y-43211D01*
X85750Y-43249D01*
X85849Y-43250D01*
X86449Y-43250D01*
X86541Y-43212D01*
X86611Y-43141D01*
X86649Y-43049D01*
X86650Y-42950D01*
X86650Y-42939D01*
X86733Y-42922D01*
X86846Y-42846D01*
X87150Y-42543D01*
X87150Y-44105D01*
X86650Y-44606D01*
X86650Y-44550D01*
X86612Y-44458D01*
X86541Y-44388D01*
X86449Y-44350D01*
X86350Y-44349D01*
X85750Y-44349D01*
X85658Y-44387D01*
X85588Y-44458D01*
X85550Y-44550D01*
X85549Y-44649D01*
X85549Y-45449D01*
X85587Y-45541D01*
X85658Y-45611D01*
X85750Y-45649D01*
X85849Y-45650D01*
X86449Y-45650D01*
X86541Y-45612D01*
X86611Y-45541D01*
X86649Y-45449D01*
X86650Y-45350D01*
X86650Y-45349D01*
X86750Y-45349D01*
X86883Y-45322D01*
X86996Y-45246D01*
X87500Y-44743D01*
X87500Y-45905D01*
X86554Y-46851D01*
X86491Y-46788D01*
X86399Y-46750D01*
X86300Y-46749D01*
X85700Y-46749D01*
X85608Y-46787D01*
X85538Y-46858D01*
X85500Y-46950D01*
X85499Y-47049D01*
X85499Y-47849D01*
X85537Y-47941D01*
X85608Y-48011D01*
X85700Y-48049D01*
X85799Y-48050D01*
X86399Y-48050D01*
X86491Y-48012D01*
X86561Y-47941D01*
X86599Y-47849D01*
X86600Y-47750D01*
X86600Y-47729D01*
X86633Y-47722D01*
X86746Y-47646D01*
X88096Y-46296D01*
X88096Y-46296D01*
X88096Y-46296D01*
X88172Y-46183D01*
X88199Y-46050D01*
X88199Y-39944D01*
X88882Y-39261D01*
X89954Y-39261D01*
X90007Y-39250D01*
X90397Y-39250D01*
X90403Y-39248D01*
X90399Y-39256D01*
X90399Y-39356D01*
X90399Y-39587D01*
X90462Y-39650D01*
X90693Y-39650D01*
X90693Y-39119D01*
X90631Y-39056D01*
X90599Y-39056D01*
X90593Y-39058D01*
X90597Y-39050D01*
X90597Y-38950D01*
X90597Y-38773D01*
X90589Y-38754D01*
X90597Y-38735D01*
X90597Y-38635D01*
X90597Y-38458D01*
X90589Y-38439D01*
X90597Y-38420D01*
X90597Y-38320D01*
X90597Y-38143D01*
X90589Y-38124D01*
X90597Y-38105D01*
X90597Y-38005D01*
X90597Y-37828D01*
X90589Y-37809D01*
X90597Y-37790D01*
X90597Y-37690D01*
X90597Y-37513D01*
X90589Y-37494D01*
X90597Y-37475D01*
X90597Y-37375D01*
X90597Y-37198D01*
X90589Y-37179D01*
X90597Y-37160D01*
X90597Y-37060D01*
X90597Y-36883D01*
X90589Y-36864D01*
X90597Y-36845D01*
X90597Y-36745D01*
X90597Y-36568D01*
X90593Y-36560D01*
X90601Y-36563D01*
X90633Y-36563D01*
X90695Y-36501D01*
X90695Y-35970D01*
X90464Y-35970D01*
X90401Y-36032D01*
X90401Y-36263D01*
X90401Y-36363D01*
X90404Y-36371D01*
X90397Y-36368D01*
X90297Y-36368D01*
X90007Y-36368D01*
X89954Y-36357D01*
X89550Y-36357D01*
X89550Y-34200D01*
X89550Y-33962D01*
X89487Y-33900D01*
X89050Y-33900D01*
X89050Y-34437D01*
X89112Y-34500D01*
X89349Y-34500D01*
X89441Y-34462D01*
X89511Y-34391D01*
X89549Y-34299D01*
X89550Y-34200D01*
X89550Y-36357D01*
X88950Y-36357D01*
X88950Y-34437D01*
X88950Y-33900D01*
X88512Y-33900D01*
X88450Y-33962D01*
X88449Y-34200D01*
X88450Y-34299D01*
X88488Y-34391D01*
X88558Y-34462D01*
X88650Y-34500D01*
X88887Y-34500D01*
X88950Y-34437D01*
X88950Y-36357D01*
X88551Y-36357D01*
X88199Y-36005D01*
X88199Y-32593D01*
X88806Y-33199D01*
X88650Y-33199D01*
X88558Y-33237D01*
X88488Y-33308D01*
X88450Y-33400D01*
X88449Y-33499D01*
X88450Y-33737D01*
X88512Y-33800D01*
X88950Y-33800D01*
X88950Y-33792D01*
X89050Y-33792D01*
X89050Y-33800D01*
X89487Y-33800D01*
X89550Y-33737D01*
X89550Y-33499D01*
X89549Y-33400D01*
X89528Y-33349D01*
X89771Y-33349D01*
X89750Y-33400D01*
X89749Y-33499D01*
X89749Y-34299D01*
X89787Y-34391D01*
X89858Y-34461D01*
X89950Y-34499D01*
X90049Y-34500D01*
X90649Y-34500D01*
X90700Y-34478D01*
X90700Y-35276D01*
X90689Y-35276D01*
X90689Y-35333D01*
X90633Y-35276D01*
X90601Y-35276D01*
X90510Y-35314D01*
X90439Y-35384D01*
X90401Y-35476D01*
X90401Y-35576D01*
X90401Y-35807D01*
X90464Y-35870D01*
X90695Y-35870D01*
X90695Y-35862D01*
X90700Y-35862D01*
X90700Y-35920D01*
X90711Y-35973D01*
X90711Y-36363D01*
X90749Y-36454D01*
X90784Y-36489D01*
X90784Y-36501D01*
X90846Y-36563D01*
X90878Y-36563D01*
X90894Y-36556D01*
X90911Y-36563D01*
X91011Y-36563D01*
X91188Y-36563D01*
X91209Y-36554D01*
X91231Y-36563D01*
X91331Y-36563D01*
X91508Y-36563D01*
X91524Y-36556D01*
X91541Y-36563D01*
X91641Y-36563D01*
X91818Y-36563D01*
X91834Y-36556D01*
X91851Y-36563D01*
X91949Y-36563D01*
X91950Y-36600D01*
X91950Y-39056D01*
X91950Y-39056D01*
G37*
G54D22*
X91950Y-39056D02*
X91859Y-39056D01*
X91840Y-39064D01*
X91820Y-39056D01*
X91720Y-39056D01*
X91543Y-39056D01*
X91525Y-39064D01*
X91506Y-39056D01*
X91406Y-39056D01*
X91229Y-39056D01*
X91210Y-39064D01*
X91190Y-39056D01*
X91090Y-39056D01*
X90913Y-39056D01*
X90895Y-39064D01*
X90876Y-39056D01*
X90844Y-39056D01*
X90782Y-39119D01*
X90782Y-39134D01*
X90751Y-39164D01*
X90713Y-39256D01*
X90713Y-39356D01*
X90713Y-40143D01*
X90751Y-40234D01*
X90782Y-40265D01*
X90782Y-40281D01*
X90844Y-40343D01*
X90876Y-40343D01*
X90894Y-40335D01*
X90913Y-40343D01*
X91013Y-40343D01*
X91018Y-40343D01*
X91018Y-44924D01*
X90753Y-44659D01*
X90753Y-44550D01*
X90693Y-44404D01*
X90693Y-40281D01*
X90693Y-39750D01*
X90462Y-39750D01*
X90399Y-39812D01*
X90399Y-40043D01*
X90399Y-40143D01*
X90437Y-40235D01*
X90508Y-40305D01*
X90599Y-40343D01*
X90631Y-40343D01*
X90693Y-40281D01*
X90693Y-44404D01*
X90677Y-44365D01*
X90535Y-44223D01*
X90350Y-44146D01*
X90150Y-44146D01*
X89965Y-44222D01*
X89823Y-44364D01*
X89746Y-44549D01*
X89746Y-44749D01*
X89822Y-44934D01*
X89838Y-44950D01*
X89665Y-45022D01*
X89523Y-45164D01*
X89446Y-45349D01*
X89446Y-45459D01*
X89303Y-45602D01*
X89303Y-45500D01*
X89227Y-45315D01*
X89085Y-45173D01*
X88900Y-45096D01*
X88700Y-45096D01*
X88515Y-45172D01*
X88373Y-45314D01*
X88296Y-45499D01*
X88296Y-45699D01*
X88372Y-45884D01*
X88450Y-45963D01*
X88450Y-48505D01*
X87102Y-49853D01*
X84350Y-49853D01*
X84350Y-48700D01*
X84350Y-48462D01*
X84287Y-48400D01*
X83850Y-48400D01*
X83850Y-48937D01*
X83912Y-49000D01*
X84149Y-49000D01*
X84241Y-48962D01*
X84311Y-48891D01*
X84349Y-48799D01*
X84350Y-48700D01*
X84350Y-49853D01*
X83750Y-49853D01*
X83750Y-48937D01*
X83750Y-48400D01*
X83312Y-48400D01*
X83250Y-48462D01*
X83249Y-48700D01*
X83250Y-48799D01*
X83288Y-48891D01*
X83358Y-48962D01*
X83450Y-49000D01*
X83687Y-49000D01*
X83750Y-48937D01*
X83750Y-49853D01*
X80546Y-49853D01*
X80413Y-49880D01*
X80299Y-49956D01*
X79874Y-50381D01*
X79875Y-50226D01*
X79780Y-49996D01*
X79633Y-49849D01*
X79779Y-49704D01*
X79874Y-49474D01*
X79875Y-49226D01*
X79780Y-48996D01*
X79633Y-48849D01*
X79779Y-48704D01*
X79874Y-48474D01*
X79874Y-48369D01*
X79922Y-48484D01*
X80064Y-48626D01*
X80249Y-48703D01*
X80449Y-48703D01*
X80634Y-48627D01*
X80776Y-48485D01*
X80853Y-48300D01*
X80853Y-48190D01*
X81046Y-47997D01*
X81046Y-48049D01*
X81122Y-48234D01*
X81264Y-48376D01*
X81380Y-48425D01*
X81059Y-48746D01*
X80950Y-48746D01*
X80765Y-48822D01*
X80623Y-48964D01*
X80546Y-49149D01*
X80546Y-49349D01*
X80622Y-49534D01*
X80764Y-49676D01*
X80949Y-49753D01*
X81149Y-49753D01*
X81334Y-49677D01*
X81476Y-49535D01*
X81553Y-49350D01*
X81553Y-49240D01*
X81962Y-48830D01*
X81987Y-48891D01*
X82058Y-48961D01*
X82150Y-48999D01*
X82249Y-49000D01*
X82849Y-49000D01*
X82941Y-48962D01*
X83011Y-48891D01*
X83049Y-48799D01*
X83050Y-48700D01*
X83050Y-47900D01*
X83012Y-47808D01*
X82952Y-47749D01*
X83347Y-47749D01*
X83288Y-47808D01*
X83250Y-47900D01*
X83249Y-47999D01*
X83250Y-48237D01*
X83312Y-48300D01*
X83750Y-48300D01*
X83750Y-48292D01*
X83850Y-48292D01*
X83850Y-48300D01*
X84287Y-48300D01*
X84350Y-48237D01*
X84350Y-48029D01*
X84400Y-48049D01*
X84499Y-48050D01*
X85099Y-48050D01*
X85191Y-48012D01*
X85261Y-47941D01*
X85299Y-47849D01*
X85300Y-47750D01*
X85300Y-46950D01*
X85262Y-46858D01*
X85191Y-46788D01*
X85099Y-46750D01*
X85000Y-46749D01*
X84400Y-46749D01*
X84350Y-46770D01*
X84350Y-46500D01*
X84350Y-45799D01*
X84349Y-45700D01*
X84311Y-45608D01*
X84241Y-45537D01*
X84149Y-45499D01*
X83912Y-45500D01*
X83850Y-45562D01*
X83850Y-46100D01*
X84287Y-46100D01*
X84350Y-46037D01*
X84350Y-45799D01*
X84350Y-46500D01*
X84350Y-46262D01*
X84287Y-46200D01*
X83850Y-46200D01*
X83850Y-46737D01*
X83912Y-46800D01*
X84149Y-46800D01*
X84241Y-46762D01*
X84311Y-46691D01*
X84349Y-46599D01*
X84350Y-46500D01*
X84350Y-46770D01*
X84308Y-46787D01*
X84238Y-46858D01*
X84200Y-46950D01*
X84199Y-47049D01*
X84199Y-47050D01*
X83750Y-47050D01*
X83750Y-46737D01*
X83750Y-46200D01*
X83750Y-46100D01*
X83750Y-45562D01*
X83687Y-45500D01*
X83450Y-45499D01*
X83358Y-45537D01*
X83288Y-45608D01*
X83250Y-45700D01*
X83249Y-45799D01*
X83250Y-46037D01*
X83312Y-46100D01*
X83750Y-46100D01*
X83750Y-46200D01*
X83312Y-46200D01*
X83250Y-46262D01*
X83249Y-46500D01*
X83250Y-46599D01*
X83288Y-46691D01*
X83358Y-46762D01*
X83450Y-46800D01*
X83687Y-46800D01*
X83750Y-46737D01*
X83750Y-47050D01*
X82650Y-47050D01*
X82516Y-47077D01*
X82470Y-47107D01*
X82403Y-47153D01*
X82403Y-47153D01*
X82253Y-47303D01*
X82249Y-47308D01*
X82249Y-46800D01*
X82249Y-46800D01*
X82849Y-46800D01*
X82941Y-46762D01*
X83011Y-46691D01*
X83049Y-46599D01*
X83050Y-46500D01*
X83050Y-45700D01*
X83012Y-45608D01*
X82941Y-45538D01*
X82849Y-45500D01*
X82849Y-45500D01*
X82849Y-45444D01*
X82944Y-45349D01*
X84249Y-45349D01*
X84249Y-45449D01*
X84287Y-45541D01*
X84358Y-45611D01*
X84450Y-45649D01*
X84549Y-45650D01*
X85149Y-45650D01*
X85241Y-45612D01*
X85311Y-45541D01*
X85349Y-45449D01*
X85350Y-45350D01*
X85350Y-44550D01*
X85312Y-44458D01*
X85241Y-44388D01*
X85149Y-44350D01*
X85050Y-44349D01*
X84450Y-44349D01*
X84358Y-44387D01*
X84350Y-44396D01*
X84350Y-44100D01*
X84350Y-43399D01*
X84349Y-43300D01*
X84311Y-43208D01*
X84241Y-43137D01*
X84149Y-43099D01*
X83912Y-43100D01*
X83850Y-43162D01*
X83850Y-43700D01*
X84287Y-43700D01*
X84350Y-43637D01*
X84350Y-43399D01*
X84350Y-44100D01*
X84350Y-43862D01*
X84287Y-43800D01*
X83850Y-43800D01*
X83850Y-44337D01*
X83912Y-44400D01*
X84149Y-44400D01*
X84241Y-44362D01*
X84311Y-44291D01*
X84349Y-44199D01*
X84350Y-44100D01*
X84350Y-44396D01*
X84288Y-44458D01*
X84250Y-44550D01*
X84249Y-44649D01*
X84249Y-44650D01*
X83750Y-44650D01*
X83750Y-44337D01*
X83750Y-43800D01*
X83750Y-43700D01*
X83750Y-43162D01*
X83687Y-43100D01*
X83450Y-43099D01*
X83358Y-43137D01*
X83288Y-43208D01*
X83250Y-43300D01*
X83249Y-43399D01*
X83250Y-43637D01*
X83312Y-43700D01*
X83750Y-43700D01*
X83750Y-43800D01*
X83312Y-43800D01*
X83250Y-43862D01*
X83249Y-44100D01*
X83250Y-44199D01*
X83288Y-44291D01*
X83358Y-44362D01*
X83450Y-44400D01*
X83687Y-44400D01*
X83750Y-44337D01*
X83750Y-44650D01*
X82800Y-44650D01*
X82799Y-44650D01*
X82773Y-44656D01*
X82666Y-44677D01*
X82553Y-44753D01*
X82553Y-44753D01*
X82253Y-45053D01*
X82177Y-45166D01*
X82150Y-45300D01*
X82150Y-45499D01*
X82150Y-45499D01*
X82058Y-45537D01*
X81988Y-45608D01*
X81950Y-45700D01*
X81949Y-45799D01*
X81949Y-45810D01*
X81949Y-45810D01*
X81949Y-44344D01*
X81995Y-44298D01*
X82058Y-44361D01*
X82150Y-44399D01*
X82249Y-44400D01*
X82849Y-44400D01*
X82941Y-44362D01*
X83011Y-44291D01*
X83049Y-44199D01*
X83050Y-44100D01*
X83050Y-43300D01*
X83012Y-43208D01*
X82948Y-43145D01*
X83144Y-42949D01*
X84249Y-42949D01*
X84249Y-43049D01*
X84287Y-43141D01*
X84358Y-43211D01*
X84450Y-43249D01*
X84549Y-43250D01*
X85149Y-43250D01*
X85241Y-43212D01*
X85311Y-43141D01*
X85349Y-43049D01*
X85350Y-42950D01*
X85350Y-42150D01*
X85312Y-42058D01*
X85241Y-41988D01*
X85149Y-41950D01*
X85050Y-41949D01*
X84450Y-41949D01*
X84358Y-41987D01*
X84350Y-41996D01*
X84350Y-41750D01*
X84350Y-41512D01*
X84287Y-41450D01*
X83850Y-41450D01*
X83850Y-41987D01*
X83912Y-42050D01*
X84149Y-42050D01*
X84241Y-42012D01*
X84311Y-41941D01*
X84349Y-41849D01*
X84350Y-41750D01*
X84350Y-41996D01*
X84288Y-42058D01*
X84250Y-42150D01*
X84249Y-42249D01*
X84249Y-42250D01*
X83750Y-42250D01*
X83750Y-41987D01*
X83750Y-41450D01*
X83750Y-41350D01*
X83750Y-40812D01*
X83687Y-40750D01*
X83450Y-40749D01*
X83358Y-40787D01*
X83288Y-40858D01*
X83250Y-40950D01*
X83249Y-41049D01*
X83250Y-41287D01*
X83312Y-41350D01*
X83750Y-41350D01*
X83750Y-41450D01*
X83312Y-41450D01*
X83250Y-41512D01*
X83249Y-41750D01*
X83250Y-41849D01*
X83288Y-41941D01*
X83358Y-42012D01*
X83450Y-42050D01*
X83687Y-42050D01*
X83750Y-41987D01*
X83750Y-42250D01*
X83000Y-42250D01*
X82866Y-42277D01*
X82753Y-42353D01*
X82253Y-42853D01*
X82177Y-42966D01*
X82150Y-43099D01*
X82150Y-43099D01*
X82058Y-43137D01*
X81988Y-43208D01*
X81950Y-43300D01*
X81949Y-43399D01*
X81949Y-43420D01*
X81916Y-43427D01*
X81803Y-43503D01*
X81649Y-43656D01*
X81649Y-43194D01*
X82746Y-42096D01*
X82746Y-42096D01*
X82746Y-42096D01*
X82778Y-42050D01*
X82849Y-42050D01*
X82941Y-42012D01*
X83011Y-41941D01*
X83049Y-41849D01*
X83050Y-41750D01*
X83050Y-40950D01*
X83012Y-40858D01*
X82941Y-40788D01*
X82849Y-40750D01*
X82849Y-40750D01*
X82849Y-40694D01*
X82894Y-40649D01*
X84249Y-40649D01*
X84249Y-40749D01*
X84282Y-40829D01*
X84241Y-40787D01*
X84149Y-40749D01*
X83912Y-40750D01*
X83850Y-40812D01*
X83850Y-41350D01*
X84287Y-41350D01*
X84350Y-41287D01*
X84350Y-41049D01*
X84349Y-40950D01*
X84316Y-40870D01*
X84358Y-40911D01*
X84450Y-40949D01*
X84549Y-40950D01*
X85149Y-40950D01*
X85241Y-40912D01*
X85311Y-40841D01*
X85349Y-40749D01*
X85350Y-40650D01*
X85350Y-39850D01*
X85312Y-39758D01*
X85241Y-39688D01*
X85149Y-39650D01*
X85050Y-39649D01*
X84450Y-39649D01*
X84358Y-39687D01*
X84349Y-39696D01*
X84350Y-39600D01*
X84350Y-38899D01*
X84349Y-38800D01*
X84311Y-38708D01*
X84241Y-38637D01*
X84149Y-38599D01*
X83912Y-38600D01*
X83850Y-38662D01*
X83850Y-39200D01*
X84287Y-39200D01*
X84350Y-39137D01*
X84350Y-38899D01*
X84350Y-39600D01*
X84350Y-39362D01*
X84287Y-39300D01*
X83850Y-39300D01*
X83850Y-39837D01*
X83912Y-39900D01*
X84149Y-39900D01*
X84241Y-39862D01*
X84250Y-39853D01*
X84249Y-39949D01*
X84249Y-39950D01*
X83750Y-39950D01*
X83750Y-39837D01*
X83750Y-39300D01*
X83750Y-39200D01*
X83750Y-38662D01*
X83687Y-38600D01*
X83450Y-38599D01*
X83358Y-38637D01*
X83288Y-38708D01*
X83250Y-38800D01*
X83249Y-38899D01*
X83250Y-39137D01*
X83312Y-39200D01*
X83750Y-39200D01*
X83750Y-39300D01*
X83312Y-39300D01*
X83250Y-39362D01*
X83249Y-39600D01*
X83250Y-39699D01*
X83288Y-39791D01*
X83358Y-39862D01*
X83450Y-39900D01*
X83687Y-39900D01*
X83750Y-39837D01*
X83750Y-39950D01*
X82750Y-39950D01*
X82741Y-39952D01*
X82746Y-39946D01*
X82746Y-39946D01*
X82746Y-39946D01*
X82778Y-39900D01*
X82849Y-39900D01*
X82941Y-39862D01*
X83011Y-39791D01*
X83049Y-39699D01*
X83050Y-39600D01*
X83050Y-38800D01*
X83012Y-38708D01*
X82941Y-38638D01*
X82880Y-38612D01*
X82994Y-38499D01*
X84299Y-38499D01*
X84299Y-38599D01*
X84337Y-38691D01*
X84408Y-38761D01*
X84500Y-38799D01*
X84599Y-38800D01*
X85199Y-38800D01*
X85291Y-38762D01*
X85361Y-38691D01*
X85399Y-38599D01*
X85400Y-38500D01*
X85400Y-37700D01*
X85362Y-37608D01*
X85291Y-37538D01*
X85199Y-37500D01*
X85100Y-37499D01*
X84500Y-37499D01*
X84408Y-37537D01*
X84350Y-37596D01*
X84350Y-37350D01*
X84350Y-36649D01*
X84349Y-36550D01*
X84311Y-36458D01*
X84241Y-36387D01*
X84149Y-36349D01*
X83912Y-36350D01*
X83850Y-36412D01*
X83850Y-36950D01*
X84287Y-36950D01*
X84350Y-36887D01*
X84350Y-36649D01*
X84350Y-37350D01*
X84350Y-37112D01*
X84287Y-37050D01*
X83850Y-37050D01*
X83850Y-37587D01*
X83912Y-37650D01*
X84149Y-37650D01*
X84241Y-37612D01*
X84311Y-37541D01*
X84349Y-37449D01*
X84350Y-37350D01*
X84350Y-37596D01*
X84338Y-37608D01*
X84300Y-37700D01*
X84299Y-37799D01*
X84299Y-37800D01*
X83750Y-37800D01*
X83750Y-37587D01*
X83750Y-37050D01*
X83750Y-36950D01*
X83750Y-36412D01*
X83687Y-36350D01*
X83450Y-36349D01*
X83358Y-36387D01*
X83288Y-36458D01*
X83250Y-36550D01*
X83249Y-36649D01*
X83250Y-36887D01*
X83312Y-36950D01*
X83750Y-36950D01*
X83750Y-37050D01*
X83312Y-37050D01*
X83250Y-37112D01*
X83249Y-37350D01*
X83250Y-37449D01*
X83288Y-37541D01*
X83358Y-37612D01*
X83450Y-37650D01*
X83687Y-37650D01*
X83750Y-37587D01*
X83750Y-37800D01*
X82850Y-37800D01*
X82849Y-37800D01*
X82828Y-37805D01*
X82849Y-37700D01*
X82849Y-37650D01*
X82849Y-37650D01*
X82941Y-37612D01*
X83011Y-37541D01*
X83049Y-37449D01*
X83050Y-37350D01*
X83050Y-36550D01*
X83012Y-36458D01*
X82948Y-36395D01*
X83044Y-36299D01*
X84349Y-36299D01*
X84349Y-36399D01*
X84387Y-36491D01*
X84458Y-36561D01*
X84550Y-36599D01*
X84649Y-36600D01*
X85249Y-36600D01*
X85341Y-36562D01*
X85411Y-36491D01*
X85449Y-36399D01*
X85450Y-36300D01*
X85450Y-35500D01*
X85412Y-35408D01*
X85341Y-35338D01*
X85249Y-35300D01*
X85150Y-35299D01*
X84550Y-35299D01*
X84458Y-35337D01*
X84388Y-35408D01*
X84350Y-35500D01*
X84350Y-35500D01*
X84350Y-35250D01*
X84350Y-34549D01*
X84349Y-34450D01*
X84311Y-34358D01*
X84241Y-34287D01*
X84149Y-34249D01*
X83912Y-34250D01*
X83850Y-34312D01*
X83850Y-34850D01*
X84287Y-34850D01*
X84350Y-34787D01*
X84350Y-34549D01*
X84350Y-35250D01*
X84350Y-35012D01*
X84287Y-34950D01*
X83850Y-34950D01*
X83850Y-35487D01*
X83912Y-35550D01*
X84149Y-35550D01*
X84241Y-35512D01*
X84311Y-35441D01*
X84349Y-35349D01*
X84350Y-35250D01*
X84350Y-35500D01*
X84349Y-35599D01*
X84349Y-35600D01*
X83750Y-35600D01*
X83750Y-35487D01*
X83750Y-34950D01*
X83750Y-34850D01*
X83750Y-34312D01*
X83687Y-34250D01*
X83450Y-34249D01*
X83358Y-34287D01*
X83288Y-34358D01*
X83250Y-34450D01*
X83249Y-34549D01*
X83250Y-34787D01*
X83312Y-34850D01*
X83750Y-34850D01*
X83750Y-34950D01*
X83312Y-34950D01*
X83250Y-35012D01*
X83249Y-35250D01*
X83250Y-35349D01*
X83288Y-35441D01*
X83358Y-35512D01*
X83450Y-35550D01*
X83687Y-35550D01*
X83750Y-35487D01*
X83750Y-35600D01*
X82900Y-35600D01*
X82899Y-35600D01*
X82873Y-35606D01*
X82766Y-35627D01*
X82653Y-35703D01*
X82653Y-35703D01*
X82253Y-36103D01*
X82177Y-36216D01*
X82150Y-36349D01*
X82150Y-36349D01*
X82058Y-36387D01*
X81988Y-36458D01*
X81950Y-36550D01*
X81949Y-36649D01*
X81949Y-37449D01*
X81987Y-37541D01*
X82058Y-37611D01*
X82083Y-37622D01*
X80699Y-39006D01*
X80699Y-36544D01*
X81949Y-35293D01*
X81949Y-35349D01*
X81987Y-35441D01*
X82058Y-35511D01*
X82150Y-35549D01*
X82249Y-35550D01*
X82849Y-35550D01*
X82941Y-35512D01*
X83011Y-35441D01*
X83049Y-35349D01*
X83050Y-35250D01*
X83050Y-34450D01*
X83012Y-34358D01*
X82941Y-34288D01*
X82916Y-34277D01*
X83044Y-34149D01*
X84399Y-34149D01*
X84399Y-34249D01*
X84437Y-34341D01*
X84508Y-34411D01*
X84600Y-34449D01*
X84699Y-34450D01*
X85299Y-34450D01*
X85391Y-34412D01*
X85461Y-34341D01*
X85499Y-34249D01*
X85500Y-34150D01*
X85500Y-33350D01*
X85462Y-33258D01*
X85391Y-33188D01*
X85299Y-33150D01*
X85200Y-33149D01*
X84600Y-33149D01*
X84508Y-33187D01*
X84438Y-33258D01*
X84400Y-33350D01*
X84399Y-33449D01*
X84399Y-33450D01*
X84350Y-33450D01*
X84350Y-33050D01*
X84350Y-32349D01*
X84349Y-32250D01*
X84311Y-32158D01*
X84241Y-32087D01*
X84149Y-32049D01*
X83912Y-32050D01*
X83850Y-32112D01*
X83850Y-32650D01*
X84287Y-32650D01*
X84350Y-32587D01*
X84350Y-32349D01*
X84350Y-33050D01*
X84350Y-32812D01*
X84287Y-32750D01*
X83850Y-32750D01*
X83850Y-33287D01*
X83912Y-33350D01*
X84149Y-33350D01*
X84241Y-33312D01*
X84311Y-33241D01*
X84349Y-33149D01*
X84350Y-33050D01*
X84350Y-33450D01*
X83750Y-33450D01*
X83750Y-33287D01*
X83750Y-32750D01*
X83750Y-32650D01*
X83750Y-32112D01*
X83687Y-32050D01*
X83450Y-32049D01*
X83358Y-32087D01*
X83288Y-32158D01*
X83250Y-32250D01*
X83249Y-32349D01*
X83250Y-32587D01*
X83312Y-32650D01*
X83750Y-32650D01*
X83750Y-32750D01*
X83312Y-32750D01*
X83250Y-32812D01*
X83249Y-33050D01*
X83250Y-33149D01*
X83288Y-33241D01*
X83358Y-33312D01*
X83450Y-33350D01*
X83687Y-33350D01*
X83750Y-33287D01*
X83750Y-33450D01*
X82900Y-33450D01*
X82899Y-33450D01*
X82873Y-33456D01*
X82766Y-33477D01*
X82653Y-33553D01*
X82653Y-33553D01*
X82253Y-33953D01*
X82177Y-34066D01*
X82150Y-34200D01*
X82150Y-34249D01*
X82150Y-34249D01*
X82058Y-34287D01*
X81988Y-34358D01*
X81950Y-34450D01*
X81949Y-34549D01*
X81949Y-34550D01*
X81850Y-34550D01*
X81716Y-34577D01*
X81603Y-34653D01*
X81603Y-34653D01*
X80349Y-35906D01*
X80349Y-34094D01*
X81394Y-33049D01*
X81949Y-33049D01*
X81949Y-33149D01*
X81987Y-33241D01*
X82058Y-33311D01*
X82150Y-33349D01*
X82249Y-33350D01*
X82849Y-33350D01*
X82941Y-33312D01*
X83011Y-33241D01*
X83049Y-33149D01*
X83050Y-33050D01*
X83050Y-32250D01*
X83012Y-32158D01*
X82948Y-32095D01*
X83044Y-31999D01*
X84399Y-31999D01*
X84399Y-32099D01*
X84437Y-32191D01*
X84508Y-32261D01*
X84600Y-32299D01*
X84699Y-32300D01*
X85299Y-32300D01*
X85391Y-32262D01*
X85461Y-32191D01*
X85499Y-32099D01*
X85500Y-32000D01*
X85500Y-31200D01*
X85462Y-31108D01*
X85391Y-31038D01*
X85299Y-31000D01*
X85200Y-30999D01*
X84600Y-30999D01*
X84508Y-31037D01*
X84438Y-31108D01*
X84400Y-31200D01*
X84399Y-31299D01*
X84399Y-31300D01*
X82900Y-31300D01*
X82899Y-31300D01*
X82873Y-31306D01*
X82766Y-31327D01*
X82653Y-31403D01*
X82653Y-31403D01*
X82253Y-31803D01*
X82177Y-31916D01*
X82150Y-32049D01*
X82150Y-32049D01*
X82058Y-32087D01*
X81988Y-32158D01*
X81950Y-32250D01*
X81949Y-32349D01*
X81949Y-32350D01*
X81250Y-32350D01*
X81116Y-32377D01*
X81003Y-32453D01*
X80900Y-32556D01*
X80900Y-29249D01*
X80900Y-29012D01*
X80837Y-28950D01*
X80300Y-28950D01*
X80300Y-29387D01*
X80362Y-29450D01*
X80600Y-29450D01*
X80699Y-29449D01*
X80791Y-29411D01*
X80862Y-29341D01*
X80900Y-29249D01*
X80900Y-32556D01*
X80200Y-33256D01*
X80200Y-29387D01*
X80200Y-28950D01*
X79662Y-28950D01*
X79625Y-28987D01*
X79587Y-28950D01*
X79050Y-28950D01*
X79050Y-29387D01*
X79112Y-29450D01*
X79350Y-29450D01*
X79449Y-29449D01*
X79541Y-29411D01*
X79612Y-29341D01*
X79625Y-29310D01*
X79637Y-29341D01*
X79708Y-29411D01*
X79800Y-29449D01*
X79899Y-29450D01*
X80137Y-29450D01*
X80200Y-29387D01*
X80200Y-33256D01*
X79879Y-33576D01*
X79879Y-31649D01*
X79875Y-31540D01*
X79875Y-30426D01*
X79780Y-30196D01*
X79604Y-30020D01*
X79374Y-29925D01*
X79126Y-29924D01*
X78896Y-30019D01*
X78720Y-30195D01*
X78625Y-30425D01*
X78624Y-30673D01*
X78719Y-30903D01*
X78892Y-31076D01*
X78880Y-31109D01*
X79250Y-31479D01*
X79619Y-31109D01*
X79607Y-31076D01*
X79779Y-30904D01*
X79874Y-30674D01*
X79875Y-30426D01*
X79875Y-31540D01*
X79869Y-31401D01*
X79793Y-31217D01*
X79690Y-31180D01*
X79320Y-31550D01*
X79690Y-31919D01*
X79793Y-31882D01*
X79879Y-31649D01*
X79879Y-33576D01*
X79753Y-33703D01*
X79677Y-33816D01*
X79650Y-33950D01*
X79650Y-34066D01*
X79619Y-34035D01*
X79619Y-31990D01*
X79250Y-31620D01*
X79179Y-31691D01*
X79179Y-31550D01*
X78809Y-31180D01*
X78706Y-31217D01*
X78620Y-31450D01*
X78630Y-31698D01*
X78706Y-31882D01*
X78809Y-31919D01*
X79179Y-31550D01*
X79179Y-31691D01*
X78880Y-31990D01*
X78917Y-32093D01*
X79150Y-32179D01*
X79398Y-32169D01*
X79582Y-32093D01*
X79619Y-31990D01*
X79619Y-34035D01*
X79604Y-34020D01*
X79374Y-33925D01*
X79126Y-33924D01*
X78896Y-34019D01*
X78720Y-34195D01*
X78625Y-34425D01*
X78624Y-34673D01*
X78719Y-34903D01*
X78866Y-35050D01*
X78720Y-35195D01*
X78625Y-35425D01*
X78624Y-35673D01*
X78719Y-35903D01*
X78866Y-36050D01*
X78720Y-36195D01*
X78625Y-36425D01*
X78624Y-36673D01*
X78719Y-36903D01*
X78866Y-37050D01*
X78720Y-37195D01*
X78625Y-37425D01*
X78624Y-37673D01*
X78719Y-37903D01*
X78866Y-38050D01*
X78720Y-38195D01*
X78625Y-38425D01*
X78624Y-38673D01*
X78719Y-38903D01*
X78866Y-39050D01*
X78720Y-39195D01*
X78625Y-39425D01*
X78624Y-39673D01*
X78719Y-39903D01*
X78866Y-40050D01*
X78720Y-40195D01*
X78625Y-40425D01*
X78624Y-40673D01*
X78719Y-40903D01*
X78866Y-41050D01*
X78720Y-41195D01*
X78625Y-41425D01*
X78624Y-41673D01*
X78719Y-41903D01*
X78895Y-42079D01*
X79125Y-42174D01*
X79227Y-42174D01*
X79196Y-42249D01*
X79196Y-42449D01*
X79272Y-42634D01*
X79362Y-42725D01*
X79126Y-42724D01*
X78896Y-42819D01*
X78720Y-42995D01*
X78625Y-43225D01*
X78624Y-43473D01*
X78719Y-43703D01*
X78866Y-43850D01*
X78720Y-43995D01*
X78625Y-44225D01*
X78624Y-44473D01*
X78719Y-44703D01*
X78866Y-44850D01*
X78720Y-44995D01*
X78625Y-45225D01*
X78624Y-45473D01*
X78719Y-45703D01*
X78866Y-45850D01*
X78720Y-45995D01*
X78625Y-46225D01*
X78624Y-46473D01*
X78719Y-46703D01*
X78866Y-46850D01*
X78720Y-46995D01*
X78625Y-47225D01*
X78624Y-47473D01*
X78719Y-47703D01*
X78866Y-47850D01*
X78720Y-47995D01*
X78625Y-48225D01*
X78624Y-48473D01*
X78719Y-48703D01*
X78866Y-48850D01*
X78720Y-48995D01*
X78625Y-49225D01*
X78624Y-49473D01*
X78719Y-49703D01*
X78866Y-49850D01*
X78720Y-49995D01*
X78625Y-50225D01*
X78624Y-50473D01*
X78719Y-50703D01*
X78866Y-50850D01*
X78641Y-50850D01*
X78627Y-50815D01*
X78485Y-50673D01*
X78450Y-50658D01*
X78450Y-29403D01*
X78458Y-29411D01*
X78550Y-29449D01*
X78649Y-29450D01*
X78887Y-29450D01*
X78950Y-29387D01*
X78950Y-28950D01*
X78942Y-28950D01*
X78942Y-28850D01*
X78950Y-28850D01*
X78950Y-28842D01*
X79050Y-28842D01*
X79050Y-28850D01*
X79587Y-28850D01*
X79625Y-28812D01*
X79662Y-28850D01*
X80200Y-28850D01*
X80200Y-28842D01*
X80300Y-28842D01*
X80300Y-28850D01*
X80837Y-28850D01*
X80900Y-28787D01*
X80900Y-28550D01*
X80879Y-28500D01*
X81300Y-28500D01*
X81300Y-28950D01*
X81327Y-29083D01*
X81403Y-29196D01*
X82303Y-30096D01*
X82416Y-30172D01*
X82550Y-30199D01*
X85805Y-30199D01*
X86610Y-31004D01*
X86599Y-31000D01*
X86500Y-30999D01*
X85900Y-30999D01*
X85808Y-31037D01*
X85738Y-31108D01*
X85700Y-31200D01*
X85699Y-31299D01*
X85699Y-32099D01*
X85737Y-32191D01*
X85808Y-32261D01*
X85900Y-32299D01*
X85999Y-32300D01*
X86599Y-32300D01*
X86691Y-32262D01*
X86761Y-32191D01*
X86799Y-32099D01*
X86800Y-32000D01*
X86800Y-31999D01*
X87005Y-31999D01*
X87500Y-32494D01*
X87500Y-33806D01*
X87246Y-33553D01*
X87133Y-33477D01*
X87000Y-33450D01*
X86800Y-33450D01*
X86800Y-33350D01*
X86762Y-33258D01*
X86691Y-33188D01*
X86599Y-33150D01*
X86500Y-33149D01*
X85900Y-33149D01*
X85808Y-33187D01*
X85738Y-33258D01*
X85700Y-33350D01*
X85699Y-33449D01*
X85699Y-34249D01*
X85737Y-34341D01*
X85808Y-34411D01*
X85900Y-34449D01*
X85999Y-34450D01*
X86599Y-34450D01*
X86691Y-34412D01*
X86761Y-34341D01*
X86799Y-34249D01*
X86800Y-34150D01*
X86800Y-34149D01*
X86855Y-34149D01*
X87200Y-34494D01*
X87200Y-35956D01*
X86946Y-35703D01*
X86833Y-35627D01*
X86750Y-35610D01*
X86750Y-35500D01*
X86712Y-35408D01*
X86641Y-35338D01*
X86549Y-35300D01*
X86450Y-35299D01*
X85850Y-35299D01*
X85758Y-35337D01*
X85688Y-35408D01*
X85650Y-35500D01*
X85649Y-35599D01*
X85649Y-36399D01*
X85687Y-36491D01*
X85758Y-36561D01*
X85850Y-36599D01*
X85949Y-36600D01*
X86549Y-36600D01*
X86641Y-36562D01*
X86711Y-36491D01*
X86722Y-36466D01*
X87558Y-37302D01*
X87298Y-37302D01*
X87164Y-37329D01*
X87051Y-37405D01*
X86700Y-37756D01*
X86700Y-37700D01*
X86662Y-37608D01*
X86591Y-37538D01*
X86499Y-37500D01*
X86400Y-37499D01*
X85800Y-37499D01*
X85708Y-37537D01*
X85638Y-37608D01*
X85600Y-37700D01*
X85599Y-37799D01*
X85599Y-38599D01*
X85637Y-38691D01*
X85708Y-38761D01*
X85800Y-38799D01*
X85899Y-38800D01*
X86499Y-38800D01*
X86553Y-38777D01*
X86527Y-38816D01*
X86500Y-38950D01*
X86500Y-39671D01*
X86449Y-39650D01*
X86350Y-39649D01*
X85750Y-39649D01*
X85658Y-39687D01*
X85588Y-39758D01*
X85550Y-39850D01*
X85549Y-39949D01*
X85549Y-40749D01*
X85587Y-40841D01*
X85658Y-40911D01*
X85750Y-40949D01*
X85849Y-40950D01*
X86449Y-40950D01*
X86541Y-40912D01*
X86611Y-40841D01*
X86649Y-40749D01*
X86650Y-40650D01*
X86650Y-40649D01*
X86700Y-40649D01*
X86833Y-40622D01*
X86850Y-40611D01*
X86850Y-41855D01*
X86622Y-42083D01*
X86612Y-42058D01*
X86541Y-41988D01*
X86449Y-41950D01*
X86350Y-41949D01*
X85750Y-41949D01*
X85658Y-41987D01*
X85588Y-42058D01*
X85550Y-42150D01*
X85549Y-42249D01*
X85549Y-43049D01*
X85587Y-43141D01*
X85658Y-43211D01*
X85750Y-43249D01*
X85849Y-43250D01*
X86449Y-43250D01*
X86541Y-43212D01*
X86611Y-43141D01*
X86649Y-43049D01*
X86650Y-42950D01*
X86650Y-42939D01*
X86733Y-42922D01*
X86846Y-42846D01*
X87150Y-42543D01*
X87150Y-44105D01*
X86650Y-44606D01*
X86650Y-44550D01*
X86612Y-44458D01*
X86541Y-44388D01*
X86449Y-44350D01*
X86350Y-44349D01*
X85750Y-44349D01*
X85658Y-44387D01*
X85588Y-44458D01*
X85550Y-44550D01*
X85549Y-44649D01*
X85549Y-45449D01*
X85587Y-45541D01*
X85658Y-45611D01*
X85750Y-45649D01*
X85849Y-45650D01*
X86449Y-45650D01*
X86541Y-45612D01*
X86611Y-45541D01*
X86649Y-45449D01*
X86650Y-45350D01*
X86650Y-45349D01*
X86750Y-45349D01*
X86883Y-45322D01*
X86996Y-45246D01*
X87500Y-44743D01*
X87500Y-45905D01*
X86554Y-46851D01*
X86491Y-46788D01*
X86399Y-46750D01*
X86300Y-46749D01*
X85700Y-46749D01*
X85608Y-46787D01*
X85538Y-46858D01*
X85500Y-46950D01*
X85499Y-47049D01*
X85499Y-47849D01*
X85537Y-47941D01*
X85608Y-48011D01*
X85700Y-48049D01*
X85799Y-48050D01*
X86399Y-48050D01*
X86491Y-48012D01*
X86561Y-47941D01*
X86599Y-47849D01*
X86600Y-47750D01*
X86600Y-47729D01*
X86633Y-47722D01*
X86746Y-47646D01*
X88096Y-46296D01*
X88096Y-46296D01*
X88096Y-46296D01*
X88172Y-46183D01*
X88199Y-46050D01*
X88199Y-39944D01*
X88882Y-39261D01*
X89954Y-39261D01*
X90007Y-39250D01*
X90397Y-39250D01*
X90403Y-39248D01*
X90399Y-39256D01*
X90399Y-39356D01*
X90399Y-39587D01*
X90462Y-39650D01*
X90693Y-39650D01*
X90693Y-39119D01*
X90631Y-39056D01*
X90599Y-39056D01*
X90593Y-39058D01*
X90597Y-39050D01*
X90597Y-38950D01*
X90597Y-38773D01*
X90589Y-38754D01*
X90597Y-38735D01*
X90597Y-38635D01*
X90597Y-38458D01*
X90589Y-38439D01*
X90597Y-38420D01*
X90597Y-38320D01*
X90597Y-38143D01*
X90589Y-38124D01*
X90597Y-38105D01*
X90597Y-38005D01*
X90597Y-37828D01*
X90589Y-37809D01*
X90597Y-37790D01*
X90597Y-37690D01*
X90597Y-37513D01*
X90589Y-37494D01*
X90597Y-37475D01*
X90597Y-37375D01*
X90597Y-37198D01*
X90589Y-37179D01*
X90597Y-37160D01*
X90597Y-37060D01*
X90597Y-36883D01*
X90589Y-36864D01*
X90597Y-36845D01*
X90597Y-36745D01*
X90597Y-36568D01*
X90593Y-36560D01*
X90601Y-36563D01*
X90633Y-36563D01*
X90695Y-36501D01*
X90695Y-35970D01*
X90464Y-35970D01*
X90401Y-36032D01*
X90401Y-36263D01*
X90401Y-36363D01*
X90404Y-36371D01*
X90397Y-36368D01*
X90297Y-36368D01*
X90007Y-36368D01*
X89954Y-36357D01*
X89550Y-36357D01*
X89550Y-34200D01*
X89550Y-33962D01*
X89487Y-33900D01*
X89050Y-33900D01*
X89050Y-34437D01*
X89112Y-34500D01*
X89349Y-34500D01*
X89441Y-34462D01*
X89511Y-34391D01*
X89549Y-34299D01*
X89550Y-34200D01*
X89550Y-36357D01*
X88950Y-36357D01*
X88950Y-34437D01*
X88950Y-33900D01*
X88512Y-33900D01*
X88450Y-33962D01*
X88449Y-34200D01*
X88450Y-34299D01*
X88488Y-34391D01*
X88558Y-34462D01*
X88650Y-34500D01*
X88887Y-34500D01*
X88950Y-34437D01*
X88950Y-36357D01*
X88551Y-36357D01*
X88199Y-36005D01*
X88199Y-32593D01*
X88806Y-33199D01*
X88650Y-33199D01*
X88558Y-33237D01*
X88488Y-33308D01*
X88450Y-33400D01*
X88449Y-33499D01*
X88450Y-33737D01*
X88512Y-33800D01*
X88950Y-33800D01*
X88950Y-33792D01*
X89050Y-33792D01*
X89050Y-33800D01*
X89487Y-33800D01*
X89550Y-33737D01*
X89550Y-33499D01*
X89549Y-33400D01*
X89528Y-33349D01*
X89771Y-33349D01*
X89750Y-33400D01*
X89749Y-33499D01*
X89749Y-34299D01*
X89787Y-34391D01*
X89858Y-34461D01*
X89950Y-34499D01*
X90049Y-34500D01*
X90649Y-34500D01*
X90700Y-34478D01*
X90700Y-35276D01*
X90689Y-35276D01*
X90689Y-35333D01*
X90633Y-35276D01*
X90601Y-35276D01*
X90510Y-35314D01*
X90439Y-35384D01*
X90401Y-35476D01*
X90401Y-35576D01*
X90401Y-35807D01*
X90464Y-35870D01*
X90695Y-35870D01*
X90695Y-35862D01*
X90700Y-35862D01*
X90700Y-35920D01*
X90711Y-35973D01*
X90711Y-36363D01*
X90749Y-36454D01*
X90784Y-36489D01*
X90784Y-36501D01*
X90846Y-36563D01*
X90878Y-36563D01*
X90894Y-36556D01*
X90911Y-36563D01*
X91011Y-36563D01*
X91188Y-36563D01*
X91209Y-36554D01*
X91231Y-36563D01*
X91331Y-36563D01*
X91508Y-36563D01*
X91524Y-36556D01*
X91541Y-36563D01*
X91641Y-36563D01*
X91818Y-36563D01*
X91834Y-36556D01*
X91851Y-36563D01*
X91949Y-36563D01*
X91950Y-36600D01*
X91950Y-39056D01*
G54D10*
G36*
X81076Y-51755D02*
X81005Y-51826D01*
X81000Y-51820D01*
X80994Y-51826D01*
X80923Y-51755D01*
X80929Y-51750D01*
X80923Y-51744D01*
X80994Y-51673D01*
X81000Y-51679D01*
X81005Y-51673D01*
X81076Y-51744D01*
X81070Y-51750D01*
X81076Y-51755D01*
X81076Y-51755D01*
G37*
G54D22*
X81076Y-51755D02*
X81005Y-51826D01*
X81000Y-51820D01*
X80994Y-51826D01*
X80923Y-51755D01*
X80929Y-51750D01*
X80923Y-51744D01*
X80994Y-51673D01*
X81000Y-51679D01*
X81005Y-51673D01*
X81076Y-51744D01*
X81070Y-51750D01*
X81076Y-51755D01*
G54D10*
G36*
X92158Y-55502D02*
X81218Y-55502D01*
X80950Y-55234D01*
X80950Y-53312D01*
X80950Y-52800D01*
X80437Y-52800D01*
X80375Y-52862D01*
X80374Y-53075D01*
X80375Y-53174D01*
X80413Y-53266D01*
X80483Y-53337D01*
X80575Y-53375D01*
X80887Y-53375D01*
X80950Y-53312D01*
X80950Y-55234D01*
X79897Y-54181D01*
X79897Y-52244D01*
X80375Y-51767D01*
X80380Y-51898D01*
X80456Y-52082D01*
X80559Y-52119D01*
X80539Y-52139D01*
X80483Y-52162D01*
X80413Y-52233D01*
X80375Y-52325D01*
X80374Y-52424D01*
X80375Y-52637D01*
X80437Y-52700D01*
X80950Y-52700D01*
X80950Y-52692D01*
X81050Y-52692D01*
X81050Y-52700D01*
X81057Y-52700D01*
X81057Y-52800D01*
X81050Y-52800D01*
X81050Y-53312D01*
X81112Y-53375D01*
X81424Y-53375D01*
X81516Y-53337D01*
X81586Y-53266D01*
X81600Y-53234D01*
X81645Y-53279D01*
X81875Y-53374D01*
X82123Y-53375D01*
X82353Y-53280D01*
X82500Y-53133D01*
X82645Y-53279D01*
X82875Y-53374D01*
X83123Y-53375D01*
X83353Y-53280D01*
X83500Y-53133D01*
X83645Y-53279D01*
X83875Y-53374D01*
X84123Y-53375D01*
X84353Y-53280D01*
X84500Y-53133D01*
X84645Y-53279D01*
X84875Y-53374D01*
X85123Y-53375D01*
X85353Y-53280D01*
X85500Y-53133D01*
X85645Y-53279D01*
X85875Y-53374D01*
X86123Y-53375D01*
X86353Y-53280D01*
X86500Y-53133D01*
X86645Y-53279D01*
X86875Y-53374D01*
X87123Y-53375D01*
X87353Y-53280D01*
X87500Y-53133D01*
X87645Y-53279D01*
X87875Y-53374D01*
X88123Y-53375D01*
X88353Y-53280D01*
X88500Y-53133D01*
X88645Y-53279D01*
X88875Y-53374D01*
X89123Y-53375D01*
X89353Y-53280D01*
X89500Y-53133D01*
X89645Y-53279D01*
X89875Y-53374D01*
X90123Y-53375D01*
X90353Y-53280D01*
X90500Y-53133D01*
X90645Y-53279D01*
X90767Y-53330D01*
X90665Y-53372D01*
X90523Y-53514D01*
X90446Y-53699D01*
X90446Y-53899D01*
X90522Y-54084D01*
X90664Y-54226D01*
X90849Y-54303D01*
X90959Y-54303D01*
X92158Y-55502D01*
X92158Y-55502D01*
G37*
G54D22*
X92158Y-55502D02*
X81218Y-55502D01*
X80950Y-55234D01*
X80950Y-53312D01*
X80950Y-52800D01*
X80437Y-52800D01*
X80375Y-52862D01*
X80374Y-53075D01*
X80375Y-53174D01*
X80413Y-53266D01*
X80483Y-53337D01*
X80575Y-53375D01*
X80887Y-53375D01*
X80950Y-53312D01*
X80950Y-55234D01*
X79897Y-54181D01*
X79897Y-52244D01*
X80375Y-51767D01*
X80380Y-51898D01*
X80456Y-52082D01*
X80559Y-52119D01*
X80539Y-52139D01*
X80483Y-52162D01*
X80413Y-52233D01*
X80375Y-52325D01*
X80374Y-52424D01*
X80375Y-52637D01*
X80437Y-52700D01*
X80950Y-52700D01*
X80950Y-52692D01*
X81050Y-52692D01*
X81050Y-52700D01*
X81057Y-52700D01*
X81057Y-52800D01*
X81050Y-52800D01*
X81050Y-53312D01*
X81112Y-53375D01*
X81424Y-53375D01*
X81516Y-53337D01*
X81586Y-53266D01*
X81600Y-53234D01*
X81645Y-53279D01*
X81875Y-53374D01*
X82123Y-53375D01*
X82353Y-53280D01*
X82500Y-53133D01*
X82645Y-53279D01*
X82875Y-53374D01*
X83123Y-53375D01*
X83353Y-53280D01*
X83500Y-53133D01*
X83645Y-53279D01*
X83875Y-53374D01*
X84123Y-53375D01*
X84353Y-53280D01*
X84500Y-53133D01*
X84645Y-53279D01*
X84875Y-53374D01*
X85123Y-53375D01*
X85353Y-53280D01*
X85500Y-53133D01*
X85645Y-53279D01*
X85875Y-53374D01*
X86123Y-53375D01*
X86353Y-53280D01*
X86500Y-53133D01*
X86645Y-53279D01*
X86875Y-53374D01*
X87123Y-53375D01*
X87353Y-53280D01*
X87500Y-53133D01*
X87645Y-53279D01*
X87875Y-53374D01*
X88123Y-53375D01*
X88353Y-53280D01*
X88500Y-53133D01*
X88645Y-53279D01*
X88875Y-53374D01*
X89123Y-53375D01*
X89353Y-53280D01*
X89500Y-53133D01*
X89645Y-53279D01*
X89875Y-53374D01*
X90123Y-53375D01*
X90353Y-53280D01*
X90500Y-53133D01*
X90645Y-53279D01*
X90767Y-53330D01*
X90665Y-53372D01*
X90523Y-53514D01*
X90446Y-53699D01*
X90446Y-53899D01*
X90522Y-54084D01*
X90664Y-54226D01*
X90849Y-54303D01*
X90959Y-54303D01*
X92158Y-55502D01*
G54D10*
G36*
X95934Y-48250D02*
X93983Y-48250D01*
X93888Y-48155D01*
X93888Y-41477D01*
X94983Y-40382D01*
X94927Y-40466D01*
X94900Y-40600D01*
X94900Y-42936D01*
X94823Y-43014D01*
X94746Y-43199D01*
X94746Y-43399D01*
X94822Y-43584D01*
X94964Y-43726D01*
X95099Y-43783D01*
X95077Y-43816D01*
X95050Y-43950D01*
X95050Y-47250D01*
X95077Y-47383D01*
X95153Y-47496D01*
X95851Y-48195D01*
X95851Y-48195D01*
X95934Y-48250D01*
X95934Y-48250D01*
G37*
G54D22*
X95934Y-48250D02*
X93983Y-48250D01*
X93888Y-48155D01*
X93888Y-41477D01*
X94983Y-40382D01*
X94927Y-40466D01*
X94900Y-40600D01*
X94900Y-42936D01*
X94823Y-43014D01*
X94746Y-43199D01*
X94746Y-43399D01*
X94822Y-43584D01*
X94964Y-43726D01*
X95099Y-43783D01*
X95077Y-43816D01*
X95050Y-43950D01*
X95050Y-47250D01*
X95077Y-47383D01*
X95153Y-47496D01*
X95851Y-48195D01*
X95851Y-48195D01*
X95934Y-48250D01*
G54D10*
G36*
X98100Y-42055D02*
X97855Y-42300D01*
X96700Y-42300D01*
X96566Y-42327D01*
X96453Y-42403D01*
X95725Y-43130D01*
X95677Y-43015D01*
X95599Y-42936D01*
X95599Y-40744D01*
X96347Y-39996D01*
X96346Y-39999D01*
X96346Y-40199D01*
X96422Y-40384D01*
X96564Y-40526D01*
X96749Y-40603D01*
X96949Y-40603D01*
X97134Y-40527D01*
X97276Y-40385D01*
X97353Y-40200D01*
X97353Y-40000D01*
X97277Y-39815D01*
X97135Y-39673D01*
X96950Y-39596D01*
X96750Y-39596D01*
X96565Y-39672D01*
X96539Y-39698D01*
X96549Y-39650D01*
X96549Y-38800D01*
X96522Y-38666D01*
X96446Y-38553D01*
X95893Y-37999D01*
X97455Y-37999D01*
X98100Y-38644D01*
X98100Y-42055D01*
X98100Y-42055D01*
G37*
G54D22*
X98100Y-42055D02*
X97855Y-42300D01*
X96700Y-42300D01*
X96566Y-42327D01*
X96453Y-42403D01*
X95725Y-43130D01*
X95677Y-43015D01*
X95599Y-42936D01*
X95599Y-40744D01*
X96347Y-39996D01*
X96346Y-39999D01*
X96346Y-40199D01*
X96422Y-40384D01*
X96564Y-40526D01*
X96749Y-40603D01*
X96949Y-40603D01*
X97134Y-40527D01*
X97276Y-40385D01*
X97353Y-40200D01*
X97353Y-40000D01*
X97277Y-39815D01*
X97135Y-39673D01*
X96950Y-39596D01*
X96750Y-39596D01*
X96565Y-39672D01*
X96539Y-39698D01*
X96549Y-39650D01*
X96549Y-38800D01*
X96522Y-38666D01*
X96446Y-38553D01*
X95893Y-37999D01*
X97455Y-37999D01*
X98100Y-38644D01*
X98100Y-42055D01*
G54D10*
G36*
X110830Y-56630D02*
X109025Y-56630D01*
X109025Y-54976D01*
X108930Y-54746D01*
X108754Y-54570D01*
X108524Y-54475D01*
X108276Y-54474D01*
X108046Y-54569D01*
X107899Y-54716D01*
X107754Y-54570D01*
X107524Y-54475D01*
X107276Y-54474D01*
X107046Y-54569D01*
X106899Y-54716D01*
X106754Y-54570D01*
X106524Y-54475D01*
X106276Y-54474D01*
X106046Y-54569D01*
X106000Y-54615D01*
X105986Y-54583D01*
X105916Y-54512D01*
X105824Y-54474D01*
X105512Y-54475D01*
X105450Y-54537D01*
X105450Y-55050D01*
X105457Y-55050D01*
X105457Y-55150D01*
X105450Y-55150D01*
X105450Y-55662D01*
X105512Y-55725D01*
X105824Y-55725D01*
X105916Y-55687D01*
X105986Y-55616D01*
X106000Y-55584D01*
X106045Y-55629D01*
X106275Y-55724D01*
X106523Y-55725D01*
X106753Y-55630D01*
X106900Y-55483D01*
X107045Y-55629D01*
X107275Y-55724D01*
X107523Y-55725D01*
X107753Y-55630D01*
X107900Y-55483D01*
X108045Y-55629D01*
X108275Y-55724D01*
X108523Y-55725D01*
X108753Y-55630D01*
X108929Y-55454D01*
X109024Y-55224D01*
X109025Y-54976D01*
X109025Y-56630D01*
X105350Y-56630D01*
X105350Y-55662D01*
X105350Y-55150D01*
X105350Y-55050D01*
X105350Y-54537D01*
X105287Y-54475D01*
X104975Y-54474D01*
X104883Y-54512D01*
X104813Y-54583D01*
X104775Y-54675D01*
X104774Y-54774D01*
X104775Y-54987D01*
X104837Y-55050D01*
X105350Y-55050D01*
X105350Y-55150D01*
X104837Y-55150D01*
X104775Y-55212D01*
X104774Y-55425D01*
X104775Y-55524D01*
X104813Y-55616D01*
X104883Y-55687D01*
X104975Y-55725D01*
X105287Y-55725D01*
X105350Y-55662D01*
X105350Y-56630D01*
X77869Y-56630D01*
X77869Y-51700D01*
X78306Y-51700D01*
X78353Y-51746D01*
X78353Y-51746D01*
X78466Y-51822D01*
X78466Y-51822D01*
X78573Y-51843D01*
X78599Y-51849D01*
X78599Y-51849D01*
X78600Y-51849D01*
X78920Y-51849D01*
X78900Y-51950D01*
X78900Y-54450D01*
X78927Y-54583D01*
X79003Y-54696D01*
X80703Y-56396D01*
X80816Y-56472D01*
X80950Y-56499D01*
X102650Y-56499D01*
X102783Y-56472D01*
X102896Y-56396D01*
X105796Y-53496D01*
X105872Y-53383D01*
X105899Y-53250D01*
X105899Y-52063D01*
X105976Y-51985D01*
X106053Y-51800D01*
X106053Y-51797D01*
X107096Y-52840D01*
X107096Y-52949D01*
X107172Y-53134D01*
X107314Y-53276D01*
X107499Y-53353D01*
X107699Y-53353D01*
X107884Y-53277D01*
X108026Y-53135D01*
X108103Y-52950D01*
X108103Y-52750D01*
X108027Y-52565D01*
X107885Y-52423D01*
X107700Y-52346D01*
X107590Y-52346D01*
X107225Y-51981D01*
X107225Y-50176D01*
X107130Y-49946D01*
X106983Y-49799D01*
X107129Y-49654D01*
X107224Y-49424D01*
X107225Y-49176D01*
X107130Y-48946D01*
X106983Y-48799D01*
X107129Y-48654D01*
X107224Y-48424D01*
X107225Y-48176D01*
X107130Y-47946D01*
X106954Y-47770D01*
X106724Y-47675D01*
X106476Y-47674D01*
X106246Y-47769D01*
X106070Y-47945D01*
X105975Y-48175D01*
X105974Y-48423D01*
X106069Y-48653D01*
X106216Y-48800D01*
X106070Y-48945D01*
X105975Y-49175D01*
X105974Y-49423D01*
X106069Y-49653D01*
X106216Y-49800D01*
X106070Y-49945D01*
X105975Y-50175D01*
X105974Y-50423D01*
X106069Y-50653D01*
X106245Y-50829D01*
X106475Y-50924D01*
X106723Y-50925D01*
X106953Y-50830D01*
X107129Y-50654D01*
X107224Y-50424D01*
X107225Y-50176D01*
X107225Y-51981D01*
X105946Y-50703D01*
X105833Y-50627D01*
X105700Y-50600D01*
X104950Y-50600D01*
X104816Y-50627D01*
X104770Y-50657D01*
X104703Y-50703D01*
X104703Y-50703D01*
X104553Y-50853D01*
X104477Y-50966D01*
X104450Y-51100D01*
X104450Y-53433D01*
X102381Y-55502D01*
X98685Y-55502D01*
X100646Y-53541D01*
X100722Y-53427D01*
X100749Y-53294D01*
X100749Y-50727D01*
X100722Y-50594D01*
X100722Y-50594D01*
X100692Y-50548D01*
X100646Y-50481D01*
X100646Y-50481D01*
X99115Y-48949D01*
X99555Y-48949D01*
X100796Y-50190D01*
X100796Y-50299D01*
X100872Y-50484D01*
X101014Y-50626D01*
X101199Y-50703D01*
X101399Y-50703D01*
X101584Y-50627D01*
X101726Y-50485D01*
X101803Y-50300D01*
X101803Y-50100D01*
X101727Y-49915D01*
X101585Y-49773D01*
X101400Y-49696D01*
X101290Y-49696D01*
X99946Y-48353D01*
X99863Y-48297D01*
X100603Y-48297D01*
X101596Y-49290D01*
X101596Y-49399D01*
X101672Y-49584D01*
X101814Y-49726D01*
X101999Y-49803D01*
X102199Y-49803D01*
X102384Y-49727D01*
X102526Y-49585D01*
X102603Y-49400D01*
X102603Y-49200D01*
X102543Y-49053D01*
X102599Y-49053D01*
X102784Y-48977D01*
X102926Y-48835D01*
X103003Y-48650D01*
X103003Y-48450D01*
X102927Y-48265D01*
X102785Y-48123D01*
X102600Y-48046D01*
X102490Y-48046D01*
X101846Y-47403D01*
X101733Y-47327D01*
X101600Y-47300D01*
X98382Y-47300D01*
X98529Y-47154D01*
X98624Y-46924D01*
X98625Y-46676D01*
X98530Y-46446D01*
X98383Y-46299D01*
X98529Y-46154D01*
X98624Y-45924D01*
X98625Y-45676D01*
X98530Y-45446D01*
X98383Y-45299D01*
X98529Y-45154D01*
X98531Y-45149D01*
X99000Y-45149D01*
X99133Y-45122D01*
X99246Y-45046D01*
X99596Y-44696D01*
X99596Y-44696D01*
X99596Y-44696D01*
X99672Y-44583D01*
X99672Y-44583D01*
X99693Y-44476D01*
X99699Y-44450D01*
X99699Y-44450D01*
X99699Y-44450D01*
X99699Y-44393D01*
X102246Y-46940D01*
X102246Y-47049D01*
X102322Y-47234D01*
X102464Y-47376D01*
X102649Y-47453D01*
X102849Y-47453D01*
X103034Y-47377D01*
X103113Y-47299D01*
X104855Y-47299D01*
X105096Y-47540D01*
X105096Y-47649D01*
X105172Y-47834D01*
X105314Y-47976D01*
X105499Y-48053D01*
X105699Y-48053D01*
X105884Y-47977D01*
X106026Y-47835D01*
X106103Y-47650D01*
X106103Y-47450D01*
X106027Y-47265D01*
X105887Y-47124D01*
X106026Y-46985D01*
X106103Y-46800D01*
X106103Y-46797D01*
X107322Y-48016D01*
X107246Y-48199D01*
X107246Y-48399D01*
X107322Y-48584D01*
X107464Y-48726D01*
X107649Y-48803D01*
X107849Y-48803D01*
X108034Y-48727D01*
X108176Y-48585D01*
X108217Y-48488D01*
X109550Y-49822D01*
X109550Y-50036D01*
X109473Y-50114D01*
X109399Y-50292D01*
X109380Y-50246D01*
X109204Y-50070D01*
X108974Y-49975D01*
X108726Y-49974D01*
X108496Y-50069D01*
X108320Y-50245D01*
X108225Y-50475D01*
X108224Y-50723D01*
X108319Y-50953D01*
X108466Y-51100D01*
X108320Y-51245D01*
X108225Y-51475D01*
X108224Y-51723D01*
X108319Y-51953D01*
X108466Y-52100D01*
X108320Y-52245D01*
X108225Y-52475D01*
X108224Y-52723D01*
X108319Y-52953D01*
X108495Y-53129D01*
X108725Y-53224D01*
X108973Y-53225D01*
X109203Y-53130D01*
X109379Y-52954D01*
X109474Y-52724D01*
X109475Y-52476D01*
X109380Y-52246D01*
X109233Y-52099D01*
X109379Y-51954D01*
X109474Y-51724D01*
X109475Y-51476D01*
X109380Y-51246D01*
X109233Y-51099D01*
X109379Y-50954D01*
X109474Y-50724D01*
X109474Y-50687D01*
X109614Y-50826D01*
X109799Y-50903D01*
X109999Y-50903D01*
X110184Y-50827D01*
X110326Y-50685D01*
X110403Y-50500D01*
X110403Y-50300D01*
X110327Y-50115D01*
X110249Y-50036D01*
X110249Y-49677D01*
X110222Y-49544D01*
X110222Y-49544D01*
X110192Y-49498D01*
X110146Y-49431D01*
X110146Y-49431D01*
X110141Y-49425D01*
X110141Y-35979D01*
X109969Y-35561D01*
X109775Y-35367D01*
X109775Y-31776D01*
X109680Y-31546D01*
X109504Y-31370D01*
X109274Y-31275D01*
X109026Y-31274D01*
X108796Y-31369D01*
X108649Y-31516D01*
X108504Y-31370D01*
X108274Y-31275D01*
X108026Y-31274D01*
X107796Y-31369D01*
X107649Y-31516D01*
X107504Y-31370D01*
X107379Y-31318D01*
X107379Y-29699D01*
X107375Y-29590D01*
X107375Y-28476D01*
X107280Y-28246D01*
X107104Y-28070D01*
X106874Y-27975D01*
X106626Y-27974D01*
X106396Y-28069D01*
X106220Y-28245D01*
X106125Y-28475D01*
X106124Y-28723D01*
X106219Y-28953D01*
X106392Y-29126D01*
X106380Y-29159D01*
X106750Y-29529D01*
X107119Y-29159D01*
X107107Y-29126D01*
X107279Y-28954D01*
X107374Y-28724D01*
X107375Y-28476D01*
X107375Y-29590D01*
X107369Y-29451D01*
X107293Y-29267D01*
X107190Y-29230D01*
X106820Y-29600D01*
X107190Y-29969D01*
X107293Y-29932D01*
X107379Y-29699D01*
X107379Y-31318D01*
X107274Y-31275D01*
X107119Y-31274D01*
X107119Y-30040D01*
X106750Y-29670D01*
X106679Y-29741D01*
X106679Y-29600D01*
X106309Y-29230D01*
X106206Y-29267D01*
X106120Y-29500D01*
X106130Y-29748D01*
X106206Y-29932D01*
X106309Y-29969D01*
X106679Y-29600D01*
X106679Y-29741D01*
X106380Y-30040D01*
X106417Y-30143D01*
X106650Y-30229D01*
X106898Y-30219D01*
X107082Y-30143D01*
X107119Y-30040D01*
X107119Y-31274D01*
X107026Y-31274D01*
X106796Y-31369D01*
X106620Y-31545D01*
X106525Y-31775D01*
X106524Y-32023D01*
X106619Y-32253D01*
X106795Y-32429D01*
X107025Y-32524D01*
X107273Y-32525D01*
X107503Y-32430D01*
X107650Y-32283D01*
X107795Y-32429D01*
X108025Y-32524D01*
X108273Y-32525D01*
X108503Y-32430D01*
X108650Y-32283D01*
X108795Y-32429D01*
X109025Y-32524D01*
X109273Y-32525D01*
X109503Y-32430D01*
X109679Y-32254D01*
X109774Y-32024D01*
X109775Y-31776D01*
X109775Y-35367D01*
X109650Y-35241D01*
X109232Y-35068D01*
X108781Y-35068D01*
X108685Y-35107D01*
X108743Y-35071D01*
X108914Y-34653D01*
X108912Y-34201D01*
X108743Y-33792D01*
X108587Y-33693D01*
X108516Y-33764D01*
X108516Y-33622D01*
X108417Y-33466D01*
X107999Y-33295D01*
X107547Y-33297D01*
X107138Y-33466D01*
X107039Y-33622D01*
X107778Y-34361D01*
X108516Y-33622D01*
X108516Y-33764D01*
X107848Y-34432D01*
X107854Y-34437D01*
X107783Y-34508D01*
X107778Y-34502D01*
X107772Y-34508D01*
X107701Y-34437D01*
X107707Y-34432D01*
X106968Y-33693D01*
X106812Y-33792D01*
X106641Y-34210D01*
X106643Y-34662D01*
X106811Y-35067D01*
X106366Y-35069D01*
X105957Y-35238D01*
X105858Y-35394D01*
X106597Y-36133D01*
X106602Y-36127D01*
X106673Y-36198D01*
X106667Y-36204D01*
X107406Y-36942D01*
X107562Y-36843D01*
X107733Y-36425D01*
X107731Y-35973D01*
X107563Y-35568D01*
X108008Y-35566D01*
X108057Y-35546D01*
X108043Y-35559D01*
X107870Y-35977D01*
X107870Y-36428D01*
X108042Y-36846D01*
X108361Y-37166D01*
X108779Y-37339D01*
X109230Y-37339D01*
X109648Y-37167D01*
X109968Y-36848D01*
X110141Y-36430D01*
X110141Y-35979D01*
X110141Y-49425D01*
X109024Y-48308D01*
X109024Y-44126D01*
X108929Y-43896D01*
X108783Y-43749D01*
X108929Y-43604D01*
X109024Y-43374D01*
X109024Y-43126D01*
X108929Y-42896D01*
X108783Y-42749D01*
X108929Y-42604D01*
X109024Y-42374D01*
X109024Y-42126D01*
X108929Y-41896D01*
X108783Y-41749D01*
X108929Y-41604D01*
X109024Y-41374D01*
X109024Y-41126D01*
X108929Y-40896D01*
X108883Y-40850D01*
X108915Y-40836D01*
X108986Y-40766D01*
X109024Y-40674D01*
X109024Y-40574D01*
X109024Y-39826D01*
X108986Y-39734D01*
X108916Y-39663D01*
X108883Y-39650D01*
X108929Y-39604D01*
X109024Y-39374D01*
X109024Y-39126D01*
X108929Y-38896D01*
X108754Y-38720D01*
X108524Y-38625D01*
X108276Y-38625D01*
X108046Y-38720D01*
X107870Y-38895D01*
X107775Y-39125D01*
X107775Y-39373D01*
X107870Y-39603D01*
X107916Y-39649D01*
X107884Y-39663D01*
X107813Y-39733D01*
X107775Y-39825D01*
X107775Y-39925D01*
X107775Y-40673D01*
X107813Y-40765D01*
X107883Y-40836D01*
X107916Y-40849D01*
X107870Y-40895D01*
X107775Y-41125D01*
X107775Y-41373D01*
X107870Y-41603D01*
X108016Y-41750D01*
X107870Y-41895D01*
X107775Y-42125D01*
X107775Y-42373D01*
X107870Y-42603D01*
X108016Y-42750D01*
X107870Y-42895D01*
X107775Y-43125D01*
X107775Y-43373D01*
X107870Y-43603D01*
X108016Y-43750D01*
X107870Y-43895D01*
X107775Y-44125D01*
X107775Y-44373D01*
X107870Y-44603D01*
X107917Y-44649D01*
X107883Y-44663D01*
X107813Y-44734D01*
X107775Y-44826D01*
X107775Y-45137D01*
X107838Y-45200D01*
X108350Y-45200D01*
X108350Y-45192D01*
X108450Y-45192D01*
X108450Y-45200D01*
X108961Y-45200D01*
X109024Y-45137D01*
X109024Y-44826D01*
X108986Y-44734D01*
X108916Y-44663D01*
X108883Y-44650D01*
X108929Y-44604D01*
X109024Y-44374D01*
X109024Y-44126D01*
X109024Y-48308D01*
X109024Y-48308D01*
X109024Y-45673D01*
X109024Y-45362D01*
X108961Y-45300D01*
X108450Y-45300D01*
X108450Y-45811D01*
X108512Y-45874D01*
X108724Y-45874D01*
X108824Y-45874D01*
X108916Y-45836D01*
X108986Y-45765D01*
X109024Y-45673D01*
X109024Y-48308D01*
X108350Y-47634D01*
X108350Y-45811D01*
X108350Y-45300D01*
X107838Y-45300D01*
X107775Y-45362D01*
X107775Y-45673D01*
X107813Y-45765D01*
X107883Y-45836D01*
X107975Y-45874D01*
X108075Y-45874D01*
X108287Y-45874D01*
X108350Y-45811D01*
X108350Y-47634D01*
X107335Y-46619D01*
X107335Y-37013D01*
X106597Y-36274D01*
X106526Y-36345D01*
X106526Y-36204D01*
X105787Y-35465D01*
X105631Y-35564D01*
X105525Y-35825D01*
X105525Y-28576D01*
X105479Y-28465D01*
X105479Y-27149D01*
X105469Y-26901D01*
X105393Y-26717D01*
X105290Y-26680D01*
X105219Y-26751D01*
X105219Y-26609D01*
X105182Y-26506D01*
X104949Y-26420D01*
X104701Y-26430D01*
X104517Y-26506D01*
X104480Y-26609D01*
X104850Y-26979D01*
X105219Y-26609D01*
X105219Y-26751D01*
X104920Y-27050D01*
X105290Y-27419D01*
X105393Y-27382D01*
X105479Y-27149D01*
X105479Y-28465D01*
X105430Y-28346D01*
X105254Y-28170D01*
X105219Y-28155D01*
X105219Y-27490D01*
X104850Y-27120D01*
X104779Y-27191D01*
X104779Y-27050D01*
X104409Y-26680D01*
X104350Y-26701D01*
X104290Y-26680D01*
X104219Y-26751D01*
X103920Y-27050D01*
X104290Y-27419D01*
X104350Y-27398D01*
X104409Y-27419D01*
X104779Y-27050D01*
X104779Y-27191D01*
X104480Y-27490D01*
X104517Y-27593D01*
X104750Y-27679D01*
X104998Y-27669D01*
X105182Y-27593D01*
X105219Y-27490D01*
X105219Y-28155D01*
X105024Y-28075D01*
X104776Y-28074D01*
X104546Y-28169D01*
X104373Y-28342D01*
X104340Y-28330D01*
X104269Y-28401D01*
X103970Y-28700D01*
X104340Y-29069D01*
X104373Y-29057D01*
X104545Y-29229D01*
X104775Y-29324D01*
X105023Y-29325D01*
X105253Y-29230D01*
X105429Y-29054D01*
X105524Y-28824D01*
X105525Y-28576D01*
X105525Y-35825D01*
X105460Y-35982D01*
X105462Y-36434D01*
X105631Y-36843D01*
X105787Y-36942D01*
X106526Y-36204D01*
X106526Y-36345D01*
X105858Y-37013D01*
X105957Y-37169D01*
X106375Y-37340D01*
X106827Y-37338D01*
X107236Y-37169D01*
X107335Y-37013D01*
X107335Y-46619D01*
X104269Y-43553D01*
X104269Y-29140D01*
X103900Y-28770D01*
X103894Y-28776D01*
X103829Y-28711D01*
X103823Y-28705D01*
X103829Y-28700D01*
X103823Y-28694D01*
X103894Y-28623D01*
X103900Y-28629D01*
X104269Y-28259D01*
X104232Y-28156D01*
X104219Y-28151D01*
X104219Y-27490D01*
X103850Y-27120D01*
X103844Y-27126D01*
X103779Y-27061D01*
X103773Y-27055D01*
X103779Y-27050D01*
X103773Y-27044D01*
X103844Y-26973D01*
X103850Y-26979D01*
X104219Y-26609D01*
X104182Y-26506D01*
X103949Y-26420D01*
X103701Y-26430D01*
X103517Y-26506D01*
X103480Y-26609D01*
X103460Y-26589D01*
X103436Y-26533D01*
X103366Y-26462D01*
X103274Y-26424D01*
X102962Y-26425D01*
X102900Y-26487D01*
X102900Y-27000D01*
X102907Y-27000D01*
X102907Y-27100D01*
X102900Y-27100D01*
X102900Y-27612D01*
X102962Y-27675D01*
X103274Y-27675D01*
X103366Y-27637D01*
X103436Y-27566D01*
X103460Y-27510D01*
X103480Y-27490D01*
X103517Y-27593D01*
X103750Y-27679D01*
X103998Y-27669D01*
X104182Y-27593D01*
X104219Y-27490D01*
X104219Y-28151D01*
X103999Y-28070D01*
X103751Y-28080D01*
X103567Y-28156D01*
X103530Y-28259D01*
X103510Y-28239D01*
X103487Y-28183D01*
X103416Y-28113D01*
X103324Y-28075D01*
X103225Y-28074D01*
X102800Y-28074D01*
X102800Y-27612D01*
X102800Y-27100D01*
X102800Y-27000D01*
X102800Y-26487D01*
X102737Y-26425D01*
X102425Y-26424D01*
X102333Y-26462D01*
X102263Y-26533D01*
X102225Y-26625D01*
X102224Y-26724D01*
X102225Y-26937D01*
X102287Y-27000D01*
X102800Y-27000D01*
X102800Y-27100D01*
X102287Y-27100D01*
X102225Y-27162D01*
X102224Y-27375D01*
X102225Y-27474D01*
X102263Y-27566D01*
X102333Y-27637D01*
X102425Y-27675D01*
X102737Y-27675D01*
X102800Y-27612D01*
X102800Y-28074D01*
X102475Y-28074D01*
X102383Y-28112D01*
X102313Y-28183D01*
X102275Y-28275D01*
X102274Y-28374D01*
X102274Y-29124D01*
X102312Y-29216D01*
X102383Y-29286D01*
X102475Y-29324D01*
X102574Y-29325D01*
X103324Y-29325D01*
X103416Y-29287D01*
X103486Y-29216D01*
X103510Y-29160D01*
X103530Y-29140D01*
X103567Y-29243D01*
X103800Y-29329D01*
X104048Y-29319D01*
X104232Y-29243D01*
X104269Y-29140D01*
X104269Y-43553D01*
X103550Y-42834D01*
X103550Y-39849D01*
X103550Y-39150D01*
X103512Y-39058D01*
X103441Y-38988D01*
X103349Y-38950D01*
X103250Y-38949D01*
X103012Y-38950D01*
X102950Y-39012D01*
X102950Y-39450D01*
X103487Y-39450D01*
X103550Y-39387D01*
X103550Y-39150D01*
X103550Y-39849D01*
X103550Y-39612D01*
X103487Y-39550D01*
X102950Y-39550D01*
X102950Y-39987D01*
X103012Y-40050D01*
X103250Y-40050D01*
X103349Y-40049D01*
X103441Y-40011D01*
X103512Y-39941D01*
X103550Y-39849D01*
X103550Y-42834D01*
X102850Y-42134D01*
X102850Y-39987D01*
X102850Y-39550D01*
X102850Y-39450D01*
X102850Y-39012D01*
X102787Y-38950D01*
X102549Y-38949D01*
X102450Y-38950D01*
X102358Y-38988D01*
X102287Y-39058D01*
X102249Y-39150D01*
X102250Y-39387D01*
X102312Y-39450D01*
X102850Y-39450D01*
X102850Y-39550D01*
X102312Y-39550D01*
X102250Y-39612D01*
X102249Y-39849D01*
X102287Y-39941D01*
X102358Y-40011D01*
X102450Y-40049D01*
X102549Y-40050D01*
X102787Y-40050D01*
X102850Y-39987D01*
X102850Y-42134D01*
X101496Y-40780D01*
X101496Y-38660D01*
X101599Y-38703D01*
X101799Y-38703D01*
X101984Y-38627D01*
X102126Y-38485D01*
X102203Y-38300D01*
X102203Y-38247D01*
X102249Y-38293D01*
X102249Y-38549D01*
X102287Y-38641D01*
X102358Y-38711D01*
X102450Y-38749D01*
X102549Y-38750D01*
X103349Y-38750D01*
X103441Y-38712D01*
X103511Y-38641D01*
X103549Y-38549D01*
X103550Y-38450D01*
X103550Y-37850D01*
X103512Y-37758D01*
X103441Y-37688D01*
X103349Y-37650D01*
X103250Y-37649D01*
X103249Y-37649D01*
X103249Y-36950D01*
X103249Y-36949D01*
X103249Y-36949D01*
X103243Y-36923D01*
X103222Y-36816D01*
X103222Y-36816D01*
X103146Y-36703D01*
X103146Y-36703D01*
X102446Y-36003D01*
X102333Y-35927D01*
X102200Y-35900D01*
X102179Y-35900D01*
X102179Y-31649D01*
X102175Y-31540D01*
X102175Y-30426D01*
X102080Y-30196D01*
X101904Y-30020D01*
X101674Y-29925D01*
X101426Y-29924D01*
X101196Y-30019D01*
X101020Y-30195D01*
X100925Y-30425D01*
X100924Y-30673D01*
X101019Y-30903D01*
X101192Y-31076D01*
X101180Y-31109D01*
X101550Y-31479D01*
X101919Y-31109D01*
X101907Y-31076D01*
X102079Y-30904D01*
X102174Y-30674D01*
X102175Y-30426D01*
X102175Y-31540D01*
X102169Y-31401D01*
X102093Y-31217D01*
X101990Y-31180D01*
X101620Y-31550D01*
X101990Y-31919D01*
X102093Y-31882D01*
X102179Y-31649D01*
X102179Y-35900D01*
X101919Y-35900D01*
X101919Y-31990D01*
X101550Y-31620D01*
X101479Y-31691D01*
X101479Y-31550D01*
X101109Y-31180D01*
X101006Y-31217D01*
X100920Y-31450D01*
X100930Y-31698D01*
X101006Y-31882D01*
X101109Y-31919D01*
X101479Y-31550D01*
X101479Y-31691D01*
X101180Y-31990D01*
X101217Y-32093D01*
X101450Y-32179D01*
X101698Y-32169D01*
X101882Y-32093D01*
X101919Y-31990D01*
X101919Y-35900D01*
X101150Y-35900D01*
X100900Y-35900D01*
X100894Y-35900D01*
X96096Y-31103D01*
X95983Y-31027D01*
X95850Y-31000D01*
X92600Y-31000D01*
X92600Y-28049D01*
X85218Y-28074D01*
X84846Y-27703D01*
X84733Y-27627D01*
X84600Y-27600D01*
X84083Y-27600D01*
X84129Y-27554D01*
X84224Y-27324D01*
X84225Y-27076D01*
X84130Y-26846D01*
X83954Y-26670D01*
X83724Y-26575D01*
X83476Y-26574D01*
X83246Y-26669D01*
X83099Y-26816D01*
X82954Y-26670D01*
X82724Y-26575D01*
X82476Y-26574D01*
X82246Y-26669D01*
X82070Y-26845D01*
X82006Y-26999D01*
X81403Y-27603D01*
X81327Y-27716D01*
X81300Y-27850D01*
X81300Y-28088D01*
X80813Y-28089D01*
X80862Y-28041D01*
X80900Y-27949D01*
X80900Y-27250D01*
X80862Y-27158D01*
X80791Y-27088D01*
X80699Y-27050D01*
X80600Y-27049D01*
X80362Y-27050D01*
X80300Y-27112D01*
X80300Y-27550D01*
X80837Y-27550D01*
X80900Y-27487D01*
X80900Y-27250D01*
X80900Y-27949D01*
X80900Y-27712D01*
X80837Y-27650D01*
X80300Y-27650D01*
X80300Y-27657D01*
X80200Y-27657D01*
X80200Y-27650D01*
X80200Y-27550D01*
X80200Y-27112D01*
X80137Y-27050D01*
X79899Y-27049D01*
X79800Y-27050D01*
X79708Y-27088D01*
X79637Y-27158D01*
X79625Y-27189D01*
X79612Y-27158D01*
X79541Y-27088D01*
X79449Y-27050D01*
X79350Y-27049D01*
X79112Y-27050D01*
X79050Y-27112D01*
X79050Y-27550D01*
X79587Y-27550D01*
X79625Y-27512D01*
X79662Y-27550D01*
X80200Y-27550D01*
X80200Y-27650D01*
X79662Y-27650D01*
X79625Y-27687D01*
X79587Y-27650D01*
X79050Y-27650D01*
X79050Y-27657D01*
X78950Y-27657D01*
X78950Y-27650D01*
X78950Y-27550D01*
X78950Y-27112D01*
X78887Y-27050D01*
X78649Y-27049D01*
X78550Y-27050D01*
X78458Y-27088D01*
X78387Y-27158D01*
X78349Y-27250D01*
X78350Y-27487D01*
X78412Y-27550D01*
X78950Y-27550D01*
X78950Y-27650D01*
X78412Y-27650D01*
X78350Y-27712D01*
X78349Y-27949D01*
X78387Y-28041D01*
X78444Y-28097D01*
X77869Y-28099D01*
X77869Y-26319D01*
X110830Y-26319D01*
X110830Y-56630D01*
X110830Y-56630D01*
G37*
G54D22*
X110830Y-56630D02*
X109025Y-56630D01*
X109025Y-54976D01*
X108930Y-54746D01*
X108754Y-54570D01*
X108524Y-54475D01*
X108276Y-54474D01*
X108046Y-54569D01*
X107899Y-54716D01*
X107754Y-54570D01*
X107524Y-54475D01*
X107276Y-54474D01*
X107046Y-54569D01*
X106899Y-54716D01*
X106754Y-54570D01*
X106524Y-54475D01*
X106276Y-54474D01*
X106046Y-54569D01*
X106000Y-54615D01*
X105986Y-54583D01*
X105916Y-54512D01*
X105824Y-54474D01*
X105512Y-54475D01*
X105450Y-54537D01*
X105450Y-55050D01*
X105457Y-55050D01*
X105457Y-55150D01*
X105450Y-55150D01*
X105450Y-55662D01*
X105512Y-55725D01*
X105824Y-55725D01*
X105916Y-55687D01*
X105986Y-55616D01*
X106000Y-55584D01*
X106045Y-55629D01*
X106275Y-55724D01*
X106523Y-55725D01*
X106753Y-55630D01*
X106900Y-55483D01*
X107045Y-55629D01*
X107275Y-55724D01*
X107523Y-55725D01*
X107753Y-55630D01*
X107900Y-55483D01*
X108045Y-55629D01*
X108275Y-55724D01*
X108523Y-55725D01*
X108753Y-55630D01*
X108929Y-55454D01*
X109024Y-55224D01*
X109025Y-54976D01*
X109025Y-56630D01*
X105350Y-56630D01*
X105350Y-55662D01*
X105350Y-55150D01*
X105350Y-55050D01*
X105350Y-54537D01*
X105287Y-54475D01*
X104975Y-54474D01*
X104883Y-54512D01*
X104813Y-54583D01*
X104775Y-54675D01*
X104774Y-54774D01*
X104775Y-54987D01*
X104837Y-55050D01*
X105350Y-55050D01*
X105350Y-55150D01*
X104837Y-55150D01*
X104775Y-55212D01*
X104774Y-55425D01*
X104775Y-55524D01*
X104813Y-55616D01*
X104883Y-55687D01*
X104975Y-55725D01*
X105287Y-55725D01*
X105350Y-55662D01*
X105350Y-56630D01*
X77869Y-56630D01*
X77869Y-51700D01*
X78306Y-51700D01*
X78353Y-51746D01*
X78353Y-51746D01*
X78466Y-51822D01*
X78466Y-51822D01*
X78573Y-51843D01*
X78599Y-51849D01*
X78599Y-51849D01*
X78600Y-51849D01*
X78920Y-51849D01*
X78900Y-51950D01*
X78900Y-54450D01*
X78927Y-54583D01*
X79003Y-54696D01*
X80703Y-56396D01*
X80816Y-56472D01*
X80950Y-56499D01*
X102650Y-56499D01*
X102783Y-56472D01*
X102896Y-56396D01*
X105796Y-53496D01*
X105872Y-53383D01*
X105899Y-53250D01*
X105899Y-52063D01*
X105976Y-51985D01*
X106053Y-51800D01*
X106053Y-51797D01*
X107096Y-52840D01*
X107096Y-52949D01*
X107172Y-53134D01*
X107314Y-53276D01*
X107499Y-53353D01*
X107699Y-53353D01*
X107884Y-53277D01*
X108026Y-53135D01*
X108103Y-52950D01*
X108103Y-52750D01*
X108027Y-52565D01*
X107885Y-52423D01*
X107700Y-52346D01*
X107590Y-52346D01*
X107225Y-51981D01*
X107225Y-50176D01*
X107130Y-49946D01*
X106983Y-49799D01*
X107129Y-49654D01*
X107224Y-49424D01*
X107225Y-49176D01*
X107130Y-48946D01*
X106983Y-48799D01*
X107129Y-48654D01*
X107224Y-48424D01*
X107225Y-48176D01*
X107130Y-47946D01*
X106954Y-47770D01*
X106724Y-47675D01*
X106476Y-47674D01*
X106246Y-47769D01*
X106070Y-47945D01*
X105975Y-48175D01*
X105974Y-48423D01*
X106069Y-48653D01*
X106216Y-48800D01*
X106070Y-48945D01*
X105975Y-49175D01*
X105974Y-49423D01*
X106069Y-49653D01*
X106216Y-49800D01*
X106070Y-49945D01*
X105975Y-50175D01*
X105974Y-50423D01*
X106069Y-50653D01*
X106245Y-50829D01*
X106475Y-50924D01*
X106723Y-50925D01*
X106953Y-50830D01*
X107129Y-50654D01*
X107224Y-50424D01*
X107225Y-50176D01*
X107225Y-51981D01*
X105946Y-50703D01*
X105833Y-50627D01*
X105700Y-50600D01*
X104950Y-50600D01*
X104816Y-50627D01*
X104770Y-50657D01*
X104703Y-50703D01*
X104703Y-50703D01*
X104553Y-50853D01*
X104477Y-50966D01*
X104450Y-51100D01*
X104450Y-53433D01*
X102381Y-55502D01*
X98685Y-55502D01*
X100646Y-53541D01*
X100722Y-53427D01*
X100749Y-53294D01*
X100749Y-50727D01*
X100722Y-50594D01*
X100722Y-50594D01*
X100692Y-50548D01*
X100646Y-50481D01*
X100646Y-50481D01*
X99115Y-48949D01*
X99555Y-48949D01*
X100796Y-50190D01*
X100796Y-50299D01*
X100872Y-50484D01*
X101014Y-50626D01*
X101199Y-50703D01*
X101399Y-50703D01*
X101584Y-50627D01*
X101726Y-50485D01*
X101803Y-50300D01*
X101803Y-50100D01*
X101727Y-49915D01*
X101585Y-49773D01*
X101400Y-49696D01*
X101290Y-49696D01*
X99946Y-48353D01*
X99863Y-48297D01*
X100603Y-48297D01*
X101596Y-49290D01*
X101596Y-49399D01*
X101672Y-49584D01*
X101814Y-49726D01*
X101999Y-49803D01*
X102199Y-49803D01*
X102384Y-49727D01*
X102526Y-49585D01*
X102603Y-49400D01*
X102603Y-49200D01*
X102543Y-49053D01*
X102599Y-49053D01*
X102784Y-48977D01*
X102926Y-48835D01*
X103003Y-48650D01*
X103003Y-48450D01*
X102927Y-48265D01*
X102785Y-48123D01*
X102600Y-48046D01*
X102490Y-48046D01*
X101846Y-47403D01*
X101733Y-47327D01*
X101600Y-47300D01*
X98382Y-47300D01*
X98529Y-47154D01*
X98624Y-46924D01*
X98625Y-46676D01*
X98530Y-46446D01*
X98383Y-46299D01*
X98529Y-46154D01*
X98624Y-45924D01*
X98625Y-45676D01*
X98530Y-45446D01*
X98383Y-45299D01*
X98529Y-45154D01*
X98531Y-45149D01*
X99000Y-45149D01*
X99133Y-45122D01*
X99246Y-45046D01*
X99596Y-44696D01*
X99596Y-44696D01*
X99596Y-44696D01*
X99672Y-44583D01*
X99672Y-44583D01*
X99693Y-44476D01*
X99699Y-44450D01*
X99699Y-44450D01*
X99699Y-44450D01*
X99699Y-44393D01*
X102246Y-46940D01*
X102246Y-47049D01*
X102322Y-47234D01*
X102464Y-47376D01*
X102649Y-47453D01*
X102849Y-47453D01*
X103034Y-47377D01*
X103113Y-47299D01*
X104855Y-47299D01*
X105096Y-47540D01*
X105096Y-47649D01*
X105172Y-47834D01*
X105314Y-47976D01*
X105499Y-48053D01*
X105699Y-48053D01*
X105884Y-47977D01*
X106026Y-47835D01*
X106103Y-47650D01*
X106103Y-47450D01*
X106027Y-47265D01*
X105887Y-47124D01*
X106026Y-46985D01*
X106103Y-46800D01*
X106103Y-46797D01*
X107322Y-48016D01*
X107246Y-48199D01*
X107246Y-48399D01*
X107322Y-48584D01*
X107464Y-48726D01*
X107649Y-48803D01*
X107849Y-48803D01*
X108034Y-48727D01*
X108176Y-48585D01*
X108217Y-48488D01*
X109550Y-49822D01*
X109550Y-50036D01*
X109473Y-50114D01*
X109399Y-50292D01*
X109380Y-50246D01*
X109204Y-50070D01*
X108974Y-49975D01*
X108726Y-49974D01*
X108496Y-50069D01*
X108320Y-50245D01*
X108225Y-50475D01*
X108224Y-50723D01*
X108319Y-50953D01*
X108466Y-51100D01*
X108320Y-51245D01*
X108225Y-51475D01*
X108224Y-51723D01*
X108319Y-51953D01*
X108466Y-52100D01*
X108320Y-52245D01*
X108225Y-52475D01*
X108224Y-52723D01*
X108319Y-52953D01*
X108495Y-53129D01*
X108725Y-53224D01*
X108973Y-53225D01*
X109203Y-53130D01*
X109379Y-52954D01*
X109474Y-52724D01*
X109475Y-52476D01*
X109380Y-52246D01*
X109233Y-52099D01*
X109379Y-51954D01*
X109474Y-51724D01*
X109475Y-51476D01*
X109380Y-51246D01*
X109233Y-51099D01*
X109379Y-50954D01*
X109474Y-50724D01*
X109474Y-50687D01*
X109614Y-50826D01*
X109799Y-50903D01*
X109999Y-50903D01*
X110184Y-50827D01*
X110326Y-50685D01*
X110403Y-50500D01*
X110403Y-50300D01*
X110327Y-50115D01*
X110249Y-50036D01*
X110249Y-49677D01*
X110222Y-49544D01*
X110222Y-49544D01*
X110192Y-49498D01*
X110146Y-49431D01*
X110146Y-49431D01*
X110141Y-49425D01*
X110141Y-35979D01*
X109969Y-35561D01*
X109775Y-35367D01*
X109775Y-31776D01*
X109680Y-31546D01*
X109504Y-31370D01*
X109274Y-31275D01*
X109026Y-31274D01*
X108796Y-31369D01*
X108649Y-31516D01*
X108504Y-31370D01*
X108274Y-31275D01*
X108026Y-31274D01*
X107796Y-31369D01*
X107649Y-31516D01*
X107504Y-31370D01*
X107379Y-31318D01*
X107379Y-29699D01*
X107375Y-29590D01*
X107375Y-28476D01*
X107280Y-28246D01*
X107104Y-28070D01*
X106874Y-27975D01*
X106626Y-27974D01*
X106396Y-28069D01*
X106220Y-28245D01*
X106125Y-28475D01*
X106124Y-28723D01*
X106219Y-28953D01*
X106392Y-29126D01*
X106380Y-29159D01*
X106750Y-29529D01*
X107119Y-29159D01*
X107107Y-29126D01*
X107279Y-28954D01*
X107374Y-28724D01*
X107375Y-28476D01*
X107375Y-29590D01*
X107369Y-29451D01*
X107293Y-29267D01*
X107190Y-29230D01*
X106820Y-29600D01*
X107190Y-29969D01*
X107293Y-29932D01*
X107379Y-29699D01*
X107379Y-31318D01*
X107274Y-31275D01*
X107119Y-31274D01*
X107119Y-30040D01*
X106750Y-29670D01*
X106679Y-29741D01*
X106679Y-29600D01*
X106309Y-29230D01*
X106206Y-29267D01*
X106120Y-29500D01*
X106130Y-29748D01*
X106206Y-29932D01*
X106309Y-29969D01*
X106679Y-29600D01*
X106679Y-29741D01*
X106380Y-30040D01*
X106417Y-30143D01*
X106650Y-30229D01*
X106898Y-30219D01*
X107082Y-30143D01*
X107119Y-30040D01*
X107119Y-31274D01*
X107026Y-31274D01*
X106796Y-31369D01*
X106620Y-31545D01*
X106525Y-31775D01*
X106524Y-32023D01*
X106619Y-32253D01*
X106795Y-32429D01*
X107025Y-32524D01*
X107273Y-32525D01*
X107503Y-32430D01*
X107650Y-32283D01*
X107795Y-32429D01*
X108025Y-32524D01*
X108273Y-32525D01*
X108503Y-32430D01*
X108650Y-32283D01*
X108795Y-32429D01*
X109025Y-32524D01*
X109273Y-32525D01*
X109503Y-32430D01*
X109679Y-32254D01*
X109774Y-32024D01*
X109775Y-31776D01*
X109775Y-35367D01*
X109650Y-35241D01*
X109232Y-35068D01*
X108781Y-35068D01*
X108685Y-35107D01*
X108743Y-35071D01*
X108914Y-34653D01*
X108912Y-34201D01*
X108743Y-33792D01*
X108587Y-33693D01*
X108516Y-33764D01*
X108516Y-33622D01*
X108417Y-33466D01*
X107999Y-33295D01*
X107547Y-33297D01*
X107138Y-33466D01*
X107039Y-33622D01*
X107778Y-34361D01*
X108516Y-33622D01*
X108516Y-33764D01*
X107848Y-34432D01*
X107854Y-34437D01*
X107783Y-34508D01*
X107778Y-34502D01*
X107772Y-34508D01*
X107701Y-34437D01*
X107707Y-34432D01*
X106968Y-33693D01*
X106812Y-33792D01*
X106641Y-34210D01*
X106643Y-34662D01*
X106811Y-35067D01*
X106366Y-35069D01*
X105957Y-35238D01*
X105858Y-35394D01*
X106597Y-36133D01*
X106602Y-36127D01*
X106673Y-36198D01*
X106667Y-36204D01*
X107406Y-36942D01*
X107562Y-36843D01*
X107733Y-36425D01*
X107731Y-35973D01*
X107563Y-35568D01*
X108008Y-35566D01*
X108057Y-35546D01*
X108043Y-35559D01*
X107870Y-35977D01*
X107870Y-36428D01*
X108042Y-36846D01*
X108361Y-37166D01*
X108779Y-37339D01*
X109230Y-37339D01*
X109648Y-37167D01*
X109968Y-36848D01*
X110141Y-36430D01*
X110141Y-35979D01*
X110141Y-49425D01*
X109024Y-48308D01*
X109024Y-44126D01*
X108929Y-43896D01*
X108783Y-43749D01*
X108929Y-43604D01*
X109024Y-43374D01*
X109024Y-43126D01*
X108929Y-42896D01*
X108783Y-42749D01*
X108929Y-42604D01*
X109024Y-42374D01*
X109024Y-42126D01*
X108929Y-41896D01*
X108783Y-41749D01*
X108929Y-41604D01*
X109024Y-41374D01*
X109024Y-41126D01*
X108929Y-40896D01*
X108883Y-40850D01*
X108915Y-40836D01*
X108986Y-40766D01*
X109024Y-40674D01*
X109024Y-40574D01*
X109024Y-39826D01*
X108986Y-39734D01*
X108916Y-39663D01*
X108883Y-39650D01*
X108929Y-39604D01*
X109024Y-39374D01*
X109024Y-39126D01*
X108929Y-38896D01*
X108754Y-38720D01*
X108524Y-38625D01*
X108276Y-38625D01*
X108046Y-38720D01*
X107870Y-38895D01*
X107775Y-39125D01*
X107775Y-39373D01*
X107870Y-39603D01*
X107916Y-39649D01*
X107884Y-39663D01*
X107813Y-39733D01*
X107775Y-39825D01*
X107775Y-39925D01*
X107775Y-40673D01*
X107813Y-40765D01*
X107883Y-40836D01*
X107916Y-40849D01*
X107870Y-40895D01*
X107775Y-41125D01*
X107775Y-41373D01*
X107870Y-41603D01*
X108016Y-41750D01*
X107870Y-41895D01*
X107775Y-42125D01*
X107775Y-42373D01*
X107870Y-42603D01*
X108016Y-42750D01*
X107870Y-42895D01*
X107775Y-43125D01*
X107775Y-43373D01*
X107870Y-43603D01*
X108016Y-43750D01*
X107870Y-43895D01*
X107775Y-44125D01*
X107775Y-44373D01*
X107870Y-44603D01*
X107917Y-44649D01*
X107883Y-44663D01*
X107813Y-44734D01*
X107775Y-44826D01*
X107775Y-45137D01*
X107838Y-45200D01*
X108350Y-45200D01*
X108350Y-45192D01*
X108450Y-45192D01*
X108450Y-45200D01*
X108961Y-45200D01*
X109024Y-45137D01*
X109024Y-44826D01*
X108986Y-44734D01*
X108916Y-44663D01*
X108883Y-44650D01*
X108929Y-44604D01*
X109024Y-44374D01*
X109024Y-44126D01*
X109024Y-48308D01*
X109024Y-48308D01*
X109024Y-45673D01*
X109024Y-45362D01*
X108961Y-45300D01*
X108450Y-45300D01*
X108450Y-45811D01*
X108512Y-45874D01*
X108724Y-45874D01*
X108824Y-45874D01*
X108916Y-45836D01*
X108986Y-45765D01*
X109024Y-45673D01*
X109024Y-48308D01*
X108350Y-47634D01*
X108350Y-45811D01*
X108350Y-45300D01*
X107838Y-45300D01*
X107775Y-45362D01*
X107775Y-45673D01*
X107813Y-45765D01*
X107883Y-45836D01*
X107975Y-45874D01*
X108075Y-45874D01*
X108287Y-45874D01*
X108350Y-45811D01*
X108350Y-47634D01*
X107335Y-46619D01*
X107335Y-37013D01*
X106597Y-36274D01*
X106526Y-36345D01*
X106526Y-36204D01*
X105787Y-35465D01*
X105631Y-35564D01*
X105525Y-35825D01*
X105525Y-28576D01*
X105479Y-28465D01*
X105479Y-27149D01*
X105469Y-26901D01*
X105393Y-26717D01*
X105290Y-26680D01*
X105219Y-26751D01*
X105219Y-26609D01*
X105182Y-26506D01*
X104949Y-26420D01*
X104701Y-26430D01*
X104517Y-26506D01*
X104480Y-26609D01*
X104850Y-26979D01*
X105219Y-26609D01*
X105219Y-26751D01*
X104920Y-27050D01*
X105290Y-27419D01*
X105393Y-27382D01*
X105479Y-27149D01*
X105479Y-28465D01*
X105430Y-28346D01*
X105254Y-28170D01*
X105219Y-28155D01*
X105219Y-27490D01*
X104850Y-27120D01*
X104779Y-27191D01*
X104779Y-27050D01*
X104409Y-26680D01*
X104350Y-26701D01*
X104290Y-26680D01*
X104219Y-26751D01*
X103920Y-27050D01*
X104290Y-27419D01*
X104350Y-27398D01*
X104409Y-27419D01*
X104779Y-27050D01*
X104779Y-27191D01*
X104480Y-27490D01*
X104517Y-27593D01*
X104750Y-27679D01*
X104998Y-27669D01*
X105182Y-27593D01*
X105219Y-27490D01*
X105219Y-28155D01*
X105024Y-28075D01*
X104776Y-28074D01*
X104546Y-28169D01*
X104373Y-28342D01*
X104340Y-28330D01*
X104269Y-28401D01*
X103970Y-28700D01*
X104340Y-29069D01*
X104373Y-29057D01*
X104545Y-29229D01*
X104775Y-29324D01*
X105023Y-29325D01*
X105253Y-29230D01*
X105429Y-29054D01*
X105524Y-28824D01*
X105525Y-28576D01*
X105525Y-35825D01*
X105460Y-35982D01*
X105462Y-36434D01*
X105631Y-36843D01*
X105787Y-36942D01*
X106526Y-36204D01*
X106526Y-36345D01*
X105858Y-37013D01*
X105957Y-37169D01*
X106375Y-37340D01*
X106827Y-37338D01*
X107236Y-37169D01*
X107335Y-37013D01*
X107335Y-46619D01*
X104269Y-43553D01*
X104269Y-29140D01*
X103900Y-28770D01*
X103894Y-28776D01*
X103829Y-28711D01*
X103823Y-28705D01*
X103829Y-28700D01*
X103823Y-28694D01*
X103894Y-28623D01*
X103900Y-28629D01*
X104269Y-28259D01*
X104232Y-28156D01*
X104219Y-28151D01*
X104219Y-27490D01*
X103850Y-27120D01*
X103844Y-27126D01*
X103779Y-27061D01*
X103773Y-27055D01*
X103779Y-27050D01*
X103773Y-27044D01*
X103844Y-26973D01*
X103850Y-26979D01*
X104219Y-26609D01*
X104182Y-26506D01*
X103949Y-26420D01*
X103701Y-26430D01*
X103517Y-26506D01*
X103480Y-26609D01*
X103460Y-26589D01*
X103436Y-26533D01*
X103366Y-26462D01*
X103274Y-26424D01*
X102962Y-26425D01*
X102900Y-26487D01*
X102900Y-27000D01*
X102907Y-27000D01*
X102907Y-27100D01*
X102900Y-27100D01*
X102900Y-27612D01*
X102962Y-27675D01*
X103274Y-27675D01*
X103366Y-27637D01*
X103436Y-27566D01*
X103460Y-27510D01*
X103480Y-27490D01*
X103517Y-27593D01*
X103750Y-27679D01*
X103998Y-27669D01*
X104182Y-27593D01*
X104219Y-27490D01*
X104219Y-28151D01*
X103999Y-28070D01*
X103751Y-28080D01*
X103567Y-28156D01*
X103530Y-28259D01*
X103510Y-28239D01*
X103487Y-28183D01*
X103416Y-28113D01*
X103324Y-28075D01*
X103225Y-28074D01*
X102800Y-28074D01*
X102800Y-27612D01*
X102800Y-27100D01*
X102800Y-27000D01*
X102800Y-26487D01*
X102737Y-26425D01*
X102425Y-26424D01*
X102333Y-26462D01*
X102263Y-26533D01*
X102225Y-26625D01*
X102224Y-26724D01*
X102225Y-26937D01*
X102287Y-27000D01*
X102800Y-27000D01*
X102800Y-27100D01*
X102287Y-27100D01*
X102225Y-27162D01*
X102224Y-27375D01*
X102225Y-27474D01*
X102263Y-27566D01*
X102333Y-27637D01*
X102425Y-27675D01*
X102737Y-27675D01*
X102800Y-27612D01*
X102800Y-28074D01*
X102475Y-28074D01*
X102383Y-28112D01*
X102313Y-28183D01*
X102275Y-28275D01*
X102274Y-28374D01*
X102274Y-29124D01*
X102312Y-29216D01*
X102383Y-29286D01*
X102475Y-29324D01*
X102574Y-29325D01*
X103324Y-29325D01*
X103416Y-29287D01*
X103486Y-29216D01*
X103510Y-29160D01*
X103530Y-29140D01*
X103567Y-29243D01*
X103800Y-29329D01*
X104048Y-29319D01*
X104232Y-29243D01*
X104269Y-29140D01*
X104269Y-43553D01*
X103550Y-42834D01*
X103550Y-39849D01*
X103550Y-39150D01*
X103512Y-39058D01*
X103441Y-38988D01*
X103349Y-38950D01*
X103250Y-38949D01*
X103012Y-38950D01*
X102950Y-39012D01*
X102950Y-39450D01*
X103487Y-39450D01*
X103550Y-39387D01*
X103550Y-39150D01*
X103550Y-39849D01*
X103550Y-39612D01*
X103487Y-39550D01*
X102950Y-39550D01*
X102950Y-39987D01*
X103012Y-40050D01*
X103250Y-40050D01*
X103349Y-40049D01*
X103441Y-40011D01*
X103512Y-39941D01*
X103550Y-39849D01*
X103550Y-42834D01*
X102850Y-42134D01*
X102850Y-39987D01*
X102850Y-39550D01*
X102850Y-39450D01*
X102850Y-39012D01*
X102787Y-38950D01*
X102549Y-38949D01*
X102450Y-38950D01*
X102358Y-38988D01*
X102287Y-39058D01*
X102249Y-39150D01*
X102250Y-39387D01*
X102312Y-39450D01*
X102850Y-39450D01*
X102850Y-39550D01*
X102312Y-39550D01*
X102250Y-39612D01*
X102249Y-39849D01*
X102287Y-39941D01*
X102358Y-40011D01*
X102450Y-40049D01*
X102549Y-40050D01*
X102787Y-40050D01*
X102850Y-39987D01*
X102850Y-42134D01*
X101496Y-40780D01*
X101496Y-38660D01*
X101599Y-38703D01*
X101799Y-38703D01*
X101984Y-38627D01*
X102126Y-38485D01*
X102203Y-38300D01*
X102203Y-38247D01*
X102249Y-38293D01*
X102249Y-38549D01*
X102287Y-38641D01*
X102358Y-38711D01*
X102450Y-38749D01*
X102549Y-38750D01*
X103349Y-38750D01*
X103441Y-38712D01*
X103511Y-38641D01*
X103549Y-38549D01*
X103550Y-38450D01*
X103550Y-37850D01*
X103512Y-37758D01*
X103441Y-37688D01*
X103349Y-37650D01*
X103250Y-37649D01*
X103249Y-37649D01*
X103249Y-36950D01*
X103249Y-36949D01*
X103249Y-36949D01*
X103243Y-36923D01*
X103222Y-36816D01*
X103222Y-36816D01*
X103146Y-36703D01*
X103146Y-36703D01*
X102446Y-36003D01*
X102333Y-35927D01*
X102200Y-35900D01*
X102179Y-35900D01*
X102179Y-31649D01*
X102175Y-31540D01*
X102175Y-30426D01*
X102080Y-30196D01*
X101904Y-30020D01*
X101674Y-29925D01*
X101426Y-29924D01*
X101196Y-30019D01*
X101020Y-30195D01*
X100925Y-30425D01*
X100924Y-30673D01*
X101019Y-30903D01*
X101192Y-31076D01*
X101180Y-31109D01*
X101550Y-31479D01*
X101919Y-31109D01*
X101907Y-31076D01*
X102079Y-30904D01*
X102174Y-30674D01*
X102175Y-30426D01*
X102175Y-31540D01*
X102169Y-31401D01*
X102093Y-31217D01*
X101990Y-31180D01*
X101620Y-31550D01*
X101990Y-31919D01*
X102093Y-31882D01*
X102179Y-31649D01*
X102179Y-35900D01*
X101919Y-35900D01*
X101919Y-31990D01*
X101550Y-31620D01*
X101479Y-31691D01*
X101479Y-31550D01*
X101109Y-31180D01*
X101006Y-31217D01*
X100920Y-31450D01*
X100930Y-31698D01*
X101006Y-31882D01*
X101109Y-31919D01*
X101479Y-31550D01*
X101479Y-31691D01*
X101180Y-31990D01*
X101217Y-32093D01*
X101450Y-32179D01*
X101698Y-32169D01*
X101882Y-32093D01*
X101919Y-31990D01*
X101919Y-35900D01*
X101150Y-35900D01*
X100900Y-35900D01*
X100894Y-35900D01*
X96096Y-31103D01*
X95983Y-31027D01*
X95850Y-31000D01*
X92600Y-31000D01*
X92600Y-28049D01*
X85218Y-28074D01*
X84846Y-27703D01*
X84733Y-27627D01*
X84600Y-27600D01*
X84083Y-27600D01*
X84129Y-27554D01*
X84224Y-27324D01*
X84225Y-27076D01*
X84130Y-26846D01*
X83954Y-26670D01*
X83724Y-26575D01*
X83476Y-26574D01*
X83246Y-26669D01*
X83099Y-26816D01*
X82954Y-26670D01*
X82724Y-26575D01*
X82476Y-26574D01*
X82246Y-26669D01*
X82070Y-26845D01*
X82006Y-26999D01*
X81403Y-27603D01*
X81327Y-27716D01*
X81300Y-27850D01*
X81300Y-28088D01*
X80813Y-28089D01*
X80862Y-28041D01*
X80900Y-27949D01*
X80900Y-27250D01*
X80862Y-27158D01*
X80791Y-27088D01*
X80699Y-27050D01*
X80600Y-27049D01*
X80362Y-27050D01*
X80300Y-27112D01*
X80300Y-27550D01*
X80837Y-27550D01*
X80900Y-27487D01*
X80900Y-27250D01*
X80900Y-27949D01*
X80900Y-27712D01*
X80837Y-27650D01*
X80300Y-27650D01*
X80300Y-27657D01*
X80200Y-27657D01*
X80200Y-27650D01*
X80200Y-27550D01*
X80200Y-27112D01*
X80137Y-27050D01*
X79899Y-27049D01*
X79800Y-27050D01*
X79708Y-27088D01*
X79637Y-27158D01*
X79625Y-27189D01*
X79612Y-27158D01*
X79541Y-27088D01*
X79449Y-27050D01*
X79350Y-27049D01*
X79112Y-27050D01*
X79050Y-27112D01*
X79050Y-27550D01*
X79587Y-27550D01*
X79625Y-27512D01*
X79662Y-27550D01*
X80200Y-27550D01*
X80200Y-27650D01*
X79662Y-27650D01*
X79625Y-27687D01*
X79587Y-27650D01*
X79050Y-27650D01*
X79050Y-27657D01*
X78950Y-27657D01*
X78950Y-27650D01*
X78950Y-27550D01*
X78950Y-27112D01*
X78887Y-27050D01*
X78649Y-27049D01*
X78550Y-27050D01*
X78458Y-27088D01*
X78387Y-27158D01*
X78349Y-27250D01*
X78350Y-27487D01*
X78412Y-27550D01*
X78950Y-27550D01*
X78950Y-27650D01*
X78412Y-27650D01*
X78350Y-27712D01*
X78349Y-27949D01*
X78387Y-28041D01*
X78444Y-28097D01*
X77869Y-28099D01*
X77869Y-26319D01*
X110830Y-26319D01*
X110830Y-56630D01*
M02*
